G75*
%MOIN*%
%OFA0B0*%
%FSLAX25Y25*%
%IPPOS*%
%LPD*%
%AMOC8*
5,1,8,0,0,1.08239X$1,22.5*
%
%ADD10R,0.04724X0.04724*%
%ADD11R,0.05118X0.05906*%
%ADD12R,0.05906X0.01969*%
%ADD13R,0.01969X0.05906*%
%ADD14C,0.06000*%
%ADD15R,0.02165X0.04724*%
%ADD16R,0.05906X0.05118*%
%ADD17R,0.03937X0.04331*%
%ADD18R,0.07200X0.10000*%
%ADD19R,0.04331X0.02362*%
%ADD20R,0.04331X0.01181*%
%ADD21C,0.08976*%
%ADD22C,0.11220*%
%ADD23R,0.04331X0.03937*%
%ADD24C,0.01200*%
%ADD25C,0.03962*%
%ADD26C,0.02400*%
D10*
X0028001Y0098057D03*
X0036269Y0098057D03*
X0036269Y0121679D03*
X0028001Y0121679D03*
D11*
X0044143Y0121679D03*
X0051623Y0121679D03*
X0051623Y0129553D03*
X0044143Y0129553D03*
X0044143Y0098057D03*
X0051623Y0098057D03*
D12*
X0064419Y0097269D03*
X0064419Y0094120D03*
X0064419Y0090970D03*
X0064419Y0087820D03*
X0064419Y0084671D03*
X0064419Y0081521D03*
X0064419Y0078372D03*
X0064419Y0100419D03*
X0064419Y0103569D03*
X0064419Y0106718D03*
X0064419Y0109868D03*
X0110088Y0109868D03*
X0110088Y0106718D03*
X0110088Y0103569D03*
X0110088Y0100419D03*
X0110088Y0097269D03*
X0110088Y0094120D03*
X0110088Y0090970D03*
X0110088Y0087820D03*
X0110088Y0084671D03*
X0110088Y0081521D03*
X0110088Y0078372D03*
D13*
X0103001Y0071285D03*
X0099852Y0071285D03*
X0096702Y0071285D03*
X0093552Y0071285D03*
X0090403Y0071285D03*
X0087253Y0071285D03*
X0084104Y0071285D03*
X0080954Y0071285D03*
X0077804Y0071285D03*
X0074655Y0071285D03*
X0071505Y0071285D03*
X0071505Y0116954D03*
X0074655Y0116954D03*
X0077804Y0116954D03*
X0080954Y0116954D03*
X0084104Y0116954D03*
X0087253Y0116954D03*
X0090403Y0116954D03*
X0093552Y0116954D03*
X0096702Y0116954D03*
X0099852Y0116954D03*
X0103001Y0116954D03*
D14*
X0097253Y0129269D02*
X0097253Y0135269D01*
X0087253Y0135269D02*
X0087253Y0129269D01*
X0077253Y0129269D02*
X0077253Y0135269D01*
X0080127Y0059718D02*
X0080127Y0053718D01*
X0070127Y0053718D02*
X0070127Y0059718D01*
X0090127Y0059718D02*
X0090127Y0053718D01*
X0100127Y0053718D02*
X0100127Y0059718D01*
X0110127Y0059718D02*
X0110127Y0053718D01*
X0120127Y0053718D02*
X0120127Y0059718D01*
D15*
X0059497Y0136245D03*
X0055757Y0136245D03*
X0052017Y0136245D03*
X0052017Y0146482D03*
X0059497Y0146482D03*
D16*
X0067568Y0145104D03*
X0067568Y0137624D03*
X0043946Y0137624D03*
X0043946Y0145104D03*
X0059694Y0058490D03*
X0059694Y0051009D03*
X0059694Y0042742D03*
X0059694Y0035261D03*
D17*
X0060285Y0129553D03*
X0066978Y0129553D03*
D18*
X0120718Y0105931D03*
X0120718Y0094120D03*
X0120718Y0082309D03*
D19*
X0047883Y0067348D03*
X0047883Y0064198D03*
X0047883Y0045301D03*
X0047883Y0042151D03*
D20*
X0047883Y0047860D03*
X0047883Y0049828D03*
X0047883Y0051797D03*
X0047883Y0053765D03*
X0047883Y0055734D03*
X0047883Y0057702D03*
X0047883Y0059671D03*
X0047883Y0061639D03*
D21*
X0043356Y0076876D03*
X0043356Y0032624D03*
D22*
X0027608Y0032624D03*
X0027608Y0076876D03*
D23*
X0059694Y0073844D03*
X0059694Y0067151D03*
D24*
X0024993Y0025902D02*
X0024993Y0025222D01*
X0043215Y0025222D01*
X0043215Y0025759D01*
X0043626Y0026751D01*
X0043956Y0027081D01*
X0043956Y0032024D01*
X0043956Y0033224D01*
X0049425Y0033224D01*
X0049294Y0034049D01*
X0048998Y0034961D01*
X0048563Y0035815D01*
X0048416Y0036016D01*
X0048615Y0036496D01*
X0048615Y0039370D01*
X0050259Y0039370D01*
X0050666Y0039479D01*
X0051031Y0039690D01*
X0051329Y0039988D01*
X0051456Y0040207D01*
X0051760Y0039903D01*
X0053076Y0039357D01*
X0054501Y0039357D01*
X0055341Y0039706D01*
X0055341Y0039603D01*
X0055813Y0039132D01*
X0055759Y0039101D01*
X0055461Y0038803D01*
X0055250Y0038438D01*
X0055141Y0038031D01*
X0055141Y0037742D01*
X0054944Y0037544D01*
X0054552Y0036958D01*
X0054282Y0036306D01*
X0054145Y0035614D01*
X0054145Y0035261D01*
X0054145Y0034909D01*
X0054282Y0034217D01*
X0054552Y0033565D01*
X0054944Y0032979D01*
X0055141Y0032781D01*
X0055141Y0032492D01*
X0055250Y0032085D01*
X0055461Y0031720D01*
X0055759Y0031422D01*
X0056124Y0031211D01*
X0056531Y0031102D01*
X0059094Y0031102D01*
X0059094Y0031952D01*
X0059422Y0032088D01*
X0060009Y0032480D01*
X0060294Y0032765D01*
X0060294Y0031102D01*
X0062858Y0031102D01*
X0063265Y0031211D01*
X0063629Y0031422D01*
X0063927Y0031720D01*
X0064138Y0032085D01*
X0064247Y0032492D01*
X0064247Y0034661D01*
X0061258Y0034661D01*
X0061307Y0034909D01*
X0061307Y0035261D01*
X0060294Y0035261D01*
X0060294Y0035261D01*
X0061307Y0035261D01*
X0061307Y0035614D01*
X0061258Y0035861D01*
X0064247Y0035861D01*
X0064247Y0038031D01*
X0064138Y0038438D01*
X0063927Y0038803D01*
X0063629Y0039101D01*
X0063576Y0039132D01*
X0064047Y0039603D01*
X0064047Y0045881D01*
X0063227Y0046701D01*
X0059554Y0046701D01*
X0059204Y0047050D01*
X0063227Y0047050D01*
X0064047Y0047870D01*
X0064047Y0054148D01*
X0063576Y0054619D01*
X0063629Y0054650D01*
X0063927Y0054948D01*
X0064138Y0055313D01*
X0064247Y0055720D01*
X0064247Y0057890D01*
X0063226Y0057890D01*
X0063275Y0058137D01*
X0063275Y0058490D01*
X0063275Y0058842D01*
X0063226Y0059090D01*
X0064247Y0059090D01*
X0064247Y0061259D01*
X0064138Y0061666D01*
X0063927Y0062031D01*
X0063629Y0062329D01*
X0063265Y0062540D01*
X0062858Y0062649D01*
X0060294Y0062649D01*
X0060294Y0062022D01*
X0060047Y0062071D01*
X0059694Y0062071D01*
X0059341Y0062071D01*
X0059094Y0062022D01*
X0059094Y0062649D01*
X0056531Y0062649D01*
X0056124Y0062540D01*
X0055759Y0062329D01*
X0055461Y0062031D01*
X0055250Y0061666D01*
X0055141Y0061259D01*
X0055141Y0061152D01*
X0054334Y0061960D01*
X0053395Y0062349D01*
X0054026Y0062980D01*
X0054501Y0062980D01*
X0055817Y0063525D01*
X0056512Y0064220D01*
X0056949Y0063783D01*
X0057211Y0063783D01*
X0057666Y0063328D01*
X0058982Y0062783D01*
X0060407Y0062783D01*
X0061723Y0063328D01*
X0062178Y0063783D01*
X0062439Y0063783D01*
X0063260Y0064603D01*
X0063260Y0065613D01*
X0063275Y0065651D01*
X0063275Y0067076D01*
X0063260Y0067114D01*
X0063260Y0069700D01*
X0062462Y0070498D01*
X0063260Y0071296D01*
X0063260Y0075987D01*
X0067951Y0075987D01*
X0068771Y0076807D01*
X0068771Y0079936D01*
X0068761Y0079946D01*
X0068771Y0079957D01*
X0068771Y0083085D01*
X0068761Y0083096D01*
X0068771Y0083107D01*
X0068771Y0086235D01*
X0068761Y0086246D01*
X0068771Y0086256D01*
X0068771Y0088270D01*
X0084889Y0088270D01*
X0085225Y0087934D01*
X0086541Y0087389D01*
X0087966Y0087389D01*
X0089282Y0087934D01*
X0090289Y0088942D01*
X0090613Y0089725D01*
X0092309Y0091420D01*
X0105735Y0091420D01*
X0105735Y0089406D01*
X0105746Y0089395D01*
X0105735Y0089385D01*
X0105735Y0086256D01*
X0105746Y0086246D01*
X0105735Y0086235D01*
X0105735Y0083107D01*
X0105746Y0083096D01*
X0105735Y0083085D01*
X0105735Y0079957D01*
X0105746Y0079946D01*
X0105735Y0079936D01*
X0105735Y0079009D01*
X0105507Y0079103D01*
X0096271Y0079103D01*
X0097156Y0079470D01*
X0098163Y0080477D01*
X0098708Y0081793D01*
X0098708Y0083218D01*
X0098163Y0084534D01*
X0097156Y0085541D01*
X0095840Y0086087D01*
X0094415Y0086087D01*
X0093099Y0085541D01*
X0092091Y0084534D01*
X0091546Y0083218D01*
X0091546Y0082743D01*
X0088114Y0079311D01*
X0087703Y0078318D01*
X0087703Y0075638D01*
X0085689Y0075638D01*
X0085678Y0075627D01*
X0085668Y0075638D01*
X0082540Y0075638D01*
X0082529Y0075627D01*
X0082518Y0075638D01*
X0079390Y0075638D01*
X0079379Y0075627D01*
X0079369Y0075638D01*
X0076240Y0075638D01*
X0076230Y0075627D01*
X0076219Y0075638D01*
X0073091Y0075638D01*
X0073080Y0075627D01*
X0073069Y0075638D01*
X0069941Y0075638D01*
X0069121Y0074818D01*
X0069121Y0067752D01*
X0069941Y0066932D01*
X0073069Y0066932D01*
X0073080Y0066943D01*
X0073091Y0066932D01*
X0076219Y0066932D01*
X0076230Y0066943D01*
X0076240Y0066932D01*
X0079369Y0066932D01*
X0079379Y0066943D01*
X0079390Y0066932D01*
X0079870Y0066932D01*
X0078598Y0065661D01*
X0077838Y0064901D01*
X0077427Y0063909D01*
X0077427Y0063241D01*
X0076397Y0062211D01*
X0075727Y0060593D01*
X0075727Y0052843D01*
X0076397Y0051226D01*
X0077635Y0049988D01*
X0079252Y0049318D01*
X0081002Y0049318D01*
X0082620Y0049988D01*
X0083857Y0051226D01*
X0084527Y0052843D01*
X0084527Y0060593D01*
X0083857Y0062211D01*
X0083321Y0062747D01*
X0084553Y0063979D01*
X0084553Y0059055D01*
X0084964Y0058063D01*
X0085724Y0057303D01*
X0085727Y0057300D01*
X0085727Y0052843D01*
X0086397Y0051226D01*
X0087635Y0049988D01*
X0089252Y0049318D01*
X0091002Y0049318D01*
X0092620Y0049988D01*
X0093857Y0051226D01*
X0094527Y0052843D01*
X0094527Y0060593D01*
X0093989Y0061892D01*
X0096072Y0061892D01*
X0095864Y0061484D01*
X0095641Y0060795D01*
X0095527Y0060080D01*
X0095527Y0057118D01*
X0099727Y0057118D01*
X0099727Y0056318D01*
X0095527Y0056318D01*
X0095527Y0053356D01*
X0095641Y0052641D01*
X0095864Y0051952D01*
X0096193Y0051307D01*
X0096619Y0050721D01*
X0097131Y0050209D01*
X0097716Y0049784D01*
X0098361Y0049455D01*
X0099050Y0049231D01*
X0099727Y0049124D01*
X0099727Y0056318D01*
X0100527Y0056318D01*
X0100527Y0049124D01*
X0101204Y0049231D01*
X0101893Y0049455D01*
X0102538Y0049784D01*
X0103124Y0050209D01*
X0103636Y0050721D01*
X0104062Y0051307D01*
X0104390Y0051952D01*
X0104614Y0052641D01*
X0104727Y0053356D01*
X0104727Y0056318D01*
X0100527Y0056318D01*
X0100527Y0057118D01*
X0104727Y0057118D01*
X0104727Y0060080D01*
X0104614Y0060795D01*
X0104390Y0061484D01*
X0104182Y0061892D01*
X0106265Y0061892D01*
X0105727Y0060593D01*
X0105727Y0052843D01*
X0106397Y0051226D01*
X0107635Y0049988D01*
X0109252Y0049318D01*
X0111002Y0049318D01*
X0112620Y0049988D01*
X0113857Y0051226D01*
X0114527Y0052843D01*
X0114527Y0060593D01*
X0114198Y0061388D01*
X0115727Y0059859D01*
X0115727Y0052843D01*
X0116397Y0051226D01*
X0117635Y0049988D01*
X0119252Y0049318D01*
X0121002Y0049318D01*
X0122620Y0049988D01*
X0123857Y0051226D01*
X0123923Y0051385D01*
X0123923Y0038151D01*
X0113694Y0027922D01*
X0047242Y0027922D01*
X0047322Y0027980D01*
X0047999Y0028657D01*
X0048563Y0029433D01*
X0048998Y0030287D01*
X0049294Y0031198D01*
X0049425Y0032024D01*
X0043956Y0032024D01*
X0042756Y0032024D01*
X0037287Y0032024D01*
X0037417Y0031198D01*
X0037713Y0030287D01*
X0038149Y0029433D01*
X0038712Y0028657D01*
X0039389Y0027980D01*
X0040165Y0027417D01*
X0041019Y0026981D01*
X0041930Y0026685D01*
X0042756Y0026555D01*
X0042756Y0032024D01*
X0042756Y0033224D01*
X0037287Y0033224D01*
X0037417Y0034049D01*
X0037510Y0034333D01*
X0034614Y0034333D01*
X0034694Y0034033D01*
X0034801Y0033224D01*
X0028208Y0033224D01*
X0028208Y0032024D01*
X0034801Y0032024D01*
X0034694Y0031214D01*
X0034450Y0030301D01*
X0034088Y0029428D01*
X0033616Y0028609D01*
X0033040Y0027859D01*
X0032372Y0027191D01*
X0031622Y0026616D01*
X0030803Y0026143D01*
X0029930Y0025781D01*
X0029017Y0025537D01*
X0028208Y0025430D01*
X0028208Y0032024D01*
X0027008Y0032024D01*
X0027008Y0025430D01*
X0026198Y0025537D01*
X0025285Y0025781D01*
X0024993Y0025902D01*
X0024993Y0025309D02*
X0043215Y0025309D01*
X0043525Y0026508D02*
X0031435Y0026508D01*
X0032887Y0027706D02*
X0039766Y0027706D01*
X0038532Y0028905D02*
X0033786Y0028905D01*
X0034368Y0030103D02*
X0037807Y0030103D01*
X0037401Y0031302D02*
X0034706Y0031302D01*
X0034739Y0033699D02*
X0037362Y0033699D01*
X0042756Y0032500D02*
X0028208Y0032500D01*
X0028198Y0032624D02*
X0030757Y0030065D01*
X0028208Y0030103D02*
X0027008Y0030103D01*
X0027008Y0028905D02*
X0028208Y0028905D01*
X0028208Y0027706D02*
X0027008Y0027706D01*
X0027008Y0026508D02*
X0028208Y0026508D01*
X0028208Y0031302D02*
X0027008Y0031302D01*
X0027608Y0032624D02*
X0028198Y0032624D01*
X0043356Y0032624D01*
X0044183Y0031796D01*
X0043956Y0031302D02*
X0042756Y0031302D01*
X0042756Y0030103D02*
X0043956Y0030103D01*
X0043956Y0028905D02*
X0042756Y0028905D01*
X0042756Y0027706D02*
X0043956Y0027706D01*
X0048179Y0028905D02*
X0114677Y0028905D01*
X0115875Y0030103D02*
X0048904Y0030103D01*
X0049310Y0031302D02*
X0055968Y0031302D01*
X0055141Y0032500D02*
X0043956Y0032500D01*
X0043356Y0032624D02*
X0045442Y0032624D01*
X0047883Y0035065D01*
X0048080Y0035261D01*
X0057726Y0035261D01*
X0057726Y0035261D01*
X0059094Y0035261D01*
X0059094Y0035261D01*
X0057726Y0035261D01*
X0059301Y0035261D01*
X0059694Y0035261D02*
X0057726Y0035261D01*
X0051820Y0035261D01*
X0054145Y0035261D02*
X0057726Y0035261D01*
X0057923Y0035065D01*
X0057726Y0035261D02*
X0057726Y0035261D01*
X0054145Y0035261D01*
X0054147Y0034897D02*
X0049018Y0034897D01*
X0047883Y0035065D02*
X0047883Y0042151D01*
X0047883Y0045301D02*
X0051427Y0045301D01*
X0053789Y0042939D01*
X0055307Y0039691D02*
X0055341Y0039691D01*
X0055282Y0038493D02*
X0048615Y0038493D01*
X0048615Y0037294D02*
X0054777Y0037294D01*
X0054240Y0036096D02*
X0048449Y0036096D01*
X0049349Y0033699D02*
X0054497Y0033699D01*
X0059094Y0031302D02*
X0060294Y0031302D01*
X0060294Y0032500D02*
X0060029Y0032500D01*
X0061305Y0034897D02*
X0120669Y0034897D01*
X0119471Y0033699D02*
X0064247Y0033699D01*
X0064247Y0032500D02*
X0118272Y0032500D01*
X0117074Y0031302D02*
X0063421Y0031302D01*
X0064247Y0036096D02*
X0121868Y0036096D01*
X0123066Y0037294D02*
X0064247Y0037294D01*
X0064106Y0038493D02*
X0123923Y0038493D01*
X0123923Y0039691D02*
X0064047Y0039691D01*
X0064047Y0040890D02*
X0123923Y0040890D01*
X0123923Y0042088D02*
X0064047Y0042088D01*
X0064047Y0043287D02*
X0123923Y0043287D01*
X0123923Y0044485D02*
X0064047Y0044485D01*
X0064047Y0045684D02*
X0123923Y0045684D01*
X0123923Y0046882D02*
X0059372Y0046882D01*
X0059694Y0051009D02*
X0057726Y0051009D01*
X0054871Y0053864D01*
X0054871Y0057604D01*
X0052804Y0059671D01*
X0047883Y0059671D01*
X0047883Y0057702D02*
X0050836Y0057702D01*
X0051820Y0056718D01*
X0051820Y0054750D01*
X0050836Y0055734D01*
X0047883Y0055734D01*
X0047883Y0053765D02*
X0050836Y0053765D01*
X0051820Y0054750D01*
X0051820Y0052781D01*
X0050836Y0051797D01*
X0047883Y0051797D01*
X0047883Y0047860D02*
X0054576Y0047860D01*
X0059694Y0042742D01*
X0064047Y0048081D02*
X0123923Y0048081D01*
X0123923Y0049279D02*
X0101352Y0049279D01*
X0100527Y0049279D02*
X0099727Y0049279D01*
X0098903Y0049279D02*
X0064047Y0049279D01*
X0064047Y0050478D02*
X0067145Y0050478D01*
X0067635Y0049988D02*
X0066397Y0051226D01*
X0065727Y0052843D01*
X0065727Y0060593D01*
X0066397Y0062211D01*
X0067635Y0063448D01*
X0069252Y0064118D01*
X0071002Y0064118D01*
X0072620Y0063448D01*
X0073857Y0062211D01*
X0074527Y0060593D01*
X0074527Y0052843D01*
X0073857Y0051226D01*
X0072620Y0049988D01*
X0071002Y0049318D01*
X0069252Y0049318D01*
X0067635Y0049988D01*
X0066210Y0051676D02*
X0064047Y0051676D01*
X0064047Y0052875D02*
X0065727Y0052875D01*
X0065727Y0054073D02*
X0064047Y0054073D01*
X0064114Y0055272D02*
X0065727Y0055272D01*
X0065727Y0056470D02*
X0064247Y0056470D01*
X0064247Y0057669D02*
X0065727Y0057669D01*
X0065727Y0058867D02*
X0063270Y0058867D01*
X0063275Y0058490D02*
X0060294Y0058490D01*
X0060294Y0058490D01*
X0063275Y0058490D01*
X0064247Y0060066D02*
X0065727Y0060066D01*
X0066005Y0061264D02*
X0064246Y0061264D01*
X0063398Y0062463D02*
X0066650Y0062463D01*
X0068150Y0063661D02*
X0062056Y0063661D01*
X0063260Y0064860D02*
X0077821Y0064860D01*
X0077427Y0063661D02*
X0072105Y0063661D01*
X0073605Y0062463D02*
X0076650Y0062463D01*
X0076005Y0061264D02*
X0074249Y0061264D01*
X0074527Y0060066D02*
X0075727Y0060066D01*
X0075727Y0058867D02*
X0074527Y0058867D01*
X0074527Y0057669D02*
X0075727Y0057669D01*
X0075727Y0056470D02*
X0074527Y0056470D01*
X0074527Y0055272D02*
X0075727Y0055272D01*
X0075727Y0054073D02*
X0074527Y0054073D01*
X0074527Y0052875D02*
X0075727Y0052875D01*
X0076210Y0051676D02*
X0074044Y0051676D01*
X0073110Y0050478D02*
X0077145Y0050478D01*
X0080127Y0056718D02*
X0080127Y0063372D01*
X0084104Y0067348D01*
X0084104Y0071285D01*
X0087253Y0071285D02*
X0087253Y0059592D01*
X0090127Y0056718D01*
X0085727Y0056470D02*
X0084527Y0056470D01*
X0084527Y0055272D02*
X0085727Y0055272D01*
X0085727Y0054073D02*
X0084527Y0054073D01*
X0084527Y0052875D02*
X0085727Y0052875D01*
X0086210Y0051676D02*
X0084044Y0051676D01*
X0083110Y0050478D02*
X0087145Y0050478D01*
X0093110Y0050478D02*
X0096862Y0050478D01*
X0096005Y0051676D02*
X0094044Y0051676D01*
X0094527Y0052875D02*
X0095603Y0052875D01*
X0095527Y0054073D02*
X0094527Y0054073D01*
X0094527Y0055272D02*
X0095527Y0055272D01*
X0094527Y0056470D02*
X0099727Y0056470D01*
X0100527Y0056470D02*
X0105727Y0056470D01*
X0105727Y0055272D02*
X0104727Y0055272D01*
X0104727Y0054073D02*
X0105727Y0054073D01*
X0105727Y0052875D02*
X0104651Y0052875D01*
X0104250Y0051676D02*
X0106210Y0051676D01*
X0107145Y0050478D02*
X0103392Y0050478D01*
X0100527Y0050478D02*
X0099727Y0050478D01*
X0099727Y0051676D02*
X0100527Y0051676D01*
X0100527Y0052875D02*
X0099727Y0052875D01*
X0099727Y0054073D02*
X0100527Y0054073D01*
X0100527Y0055272D02*
X0099727Y0055272D01*
X0095527Y0057669D02*
X0094527Y0057669D01*
X0094527Y0058867D02*
X0095527Y0058867D01*
X0095527Y0060066D02*
X0094527Y0060066D01*
X0094249Y0061264D02*
X0095793Y0061264D01*
X0091190Y0064592D02*
X0114812Y0064592D01*
X0120127Y0059277D01*
X0120127Y0056718D01*
X0115727Y0056470D02*
X0114527Y0056470D01*
X0114527Y0055272D02*
X0115727Y0055272D01*
X0115727Y0054073D02*
X0114527Y0054073D01*
X0114527Y0052875D02*
X0115727Y0052875D01*
X0116210Y0051676D02*
X0114044Y0051676D01*
X0113110Y0050478D02*
X0117145Y0050478D01*
X0123110Y0050478D02*
X0123923Y0050478D01*
X0115727Y0057669D02*
X0114527Y0057669D01*
X0114527Y0058867D02*
X0115727Y0058867D01*
X0115520Y0060066D02*
X0114527Y0060066D01*
X0114322Y0061264D02*
X0114249Y0061264D01*
X0106005Y0061264D02*
X0104462Y0061264D01*
X0104727Y0060066D02*
X0105727Y0060066D01*
X0105727Y0058867D02*
X0104727Y0058867D01*
X0104727Y0057669D02*
X0105727Y0057669D01*
X0093552Y0071285D02*
X0093552Y0074828D01*
X0095127Y0076403D01*
X0104970Y0076403D01*
X0106938Y0074435D01*
X0114812Y0074435D01*
X0120718Y0080340D01*
X0120718Y0082309D01*
X0120718Y0094120D02*
X0110088Y0094120D01*
X0091190Y0094120D01*
X0088041Y0090970D01*
X0087253Y0090970D01*
X0064419Y0090970D01*
X0058710Y0090970D01*
X0052706Y0096974D01*
X0051623Y0098057D01*
X0055582Y0099162D02*
X0055582Y0101589D01*
X0054762Y0102409D01*
X0048484Y0102409D01*
X0047883Y0101808D01*
X0047282Y0102409D01*
X0041004Y0102409D01*
X0040184Y0101589D01*
X0040184Y0100757D01*
X0040031Y0100757D01*
X0040031Y0100999D01*
X0039211Y0101819D01*
X0033327Y0101819D01*
X0032507Y0100999D01*
X0032507Y0095115D01*
X0033327Y0094294D01*
X0039211Y0094294D01*
X0040031Y0095115D01*
X0040031Y0095357D01*
X0040184Y0095357D01*
X0040184Y0094524D01*
X0041004Y0093704D01*
X0047282Y0093704D01*
X0047883Y0094305D01*
X0048484Y0093704D01*
X0051243Y0093704D01*
X0051994Y0093393D01*
X0052469Y0093393D01*
X0057181Y0088681D01*
X0058173Y0088270D01*
X0060066Y0088270D01*
X0060066Y0086256D01*
X0060077Y0086246D01*
X0060066Y0086235D01*
X0060066Y0083107D01*
X0060077Y0083096D01*
X0060066Y0083085D01*
X0060066Y0079957D01*
X0060077Y0079946D01*
X0060066Y0079936D01*
X0060066Y0077213D01*
X0056949Y0077213D01*
X0056880Y0077144D01*
X0056479Y0077144D01*
X0055266Y0076642D01*
X0050991Y0072367D01*
X0050489Y0071154D01*
X0050489Y0070068D01*
X0050259Y0070129D01*
X0048615Y0070129D01*
X0048615Y0073003D01*
X0048416Y0073483D01*
X0048563Y0073685D01*
X0048998Y0074539D01*
X0049294Y0075450D01*
X0049425Y0076276D01*
X0043956Y0076276D01*
X0043956Y0077476D01*
X0042756Y0077476D01*
X0042756Y0082945D01*
X0041930Y0082814D01*
X0041019Y0082518D01*
X0040165Y0082083D01*
X0039389Y0081519D01*
X0038712Y0080842D01*
X0038149Y0080066D01*
X0037713Y0079213D01*
X0037417Y0078301D01*
X0037287Y0077476D01*
X0042756Y0077476D01*
X0042756Y0076276D01*
X0037287Y0076276D01*
X0037417Y0075450D01*
X0037510Y0075166D01*
X0034614Y0075166D01*
X0034694Y0075466D01*
X0034801Y0076276D01*
X0028208Y0076276D01*
X0028208Y0077476D01*
X0027008Y0077476D01*
X0027008Y0084069D01*
X0026198Y0083962D01*
X0025285Y0083718D01*
X0024993Y0083597D01*
X0024993Y0094220D01*
X0025022Y0094204D01*
X0025428Y0094094D01*
X0027420Y0094094D01*
X0027420Y0097476D01*
X0028582Y0097476D01*
X0028582Y0094094D01*
X0030574Y0094094D01*
X0030981Y0094204D01*
X0031346Y0094414D01*
X0031644Y0094712D01*
X0031854Y0095077D01*
X0031963Y0095484D01*
X0031963Y0097476D01*
X0028582Y0097476D01*
X0028582Y0098638D01*
X0027420Y0098638D01*
X0027420Y0102019D01*
X0025428Y0102019D01*
X0025022Y0101910D01*
X0024993Y0101893D01*
X0024993Y0117842D01*
X0025022Y0117826D01*
X0025428Y0117717D01*
X0027420Y0117717D01*
X0027420Y0121098D01*
X0028582Y0121098D01*
X0028582Y0117717D01*
X0030574Y0117717D01*
X0030981Y0117826D01*
X0031346Y0118036D01*
X0031644Y0118334D01*
X0031854Y0118699D01*
X0031963Y0119106D01*
X0031963Y0121098D01*
X0028582Y0121098D01*
X0028582Y0122260D01*
X0027420Y0122260D01*
X0027420Y0125641D01*
X0025428Y0125641D01*
X0025022Y0125532D01*
X0024993Y0125515D01*
X0024993Y0138277D01*
X0035222Y0148506D01*
X0039857Y0148506D01*
X0039593Y0148243D01*
X0039593Y0147804D01*
X0039275Y0147804D01*
X0038283Y0147393D01*
X0037803Y0146913D01*
X0037328Y0146913D01*
X0036012Y0146368D01*
X0035005Y0145361D01*
X0034460Y0144045D01*
X0034460Y0142620D01*
X0035005Y0141304D01*
X0036012Y0140296D01*
X0037328Y0139751D01*
X0038753Y0139751D01*
X0039393Y0140016D01*
X0039393Y0138224D01*
X0043346Y0138224D01*
X0043346Y0137024D01*
X0039393Y0137024D01*
X0039393Y0134854D01*
X0039502Y0134447D01*
X0039713Y0134082D01*
X0040011Y0133784D01*
X0040376Y0133574D01*
X0040386Y0133571D01*
X0040304Y0133488D01*
X0040093Y0133123D01*
X0039984Y0132716D01*
X0039984Y0130153D01*
X0043543Y0130153D01*
X0043543Y0134105D01*
X0043346Y0134105D01*
X0043346Y0137024D01*
X0044546Y0137024D01*
X0044546Y0138224D01*
X0048499Y0138224D01*
X0048499Y0140393D01*
X0048390Y0140800D01*
X0048179Y0141165D01*
X0047881Y0141463D01*
X0047828Y0141494D01*
X0048299Y0141965D01*
X0048299Y0143782D01*
X0049534Y0143782D01*
X0049534Y0143540D01*
X0050354Y0142720D01*
X0053680Y0142720D01*
X0054500Y0143540D01*
X0054500Y0145421D01*
X0054717Y0145945D01*
X0054717Y0147019D01*
X0054500Y0147544D01*
X0054500Y0148506D01*
X0057015Y0148506D01*
X0057015Y0147544D01*
X0056797Y0147019D01*
X0056797Y0145945D01*
X0057015Y0145421D01*
X0057015Y0143540D01*
X0057835Y0142720D01*
X0061160Y0142720D01*
X0061980Y0143540D01*
X0061980Y0143782D01*
X0063215Y0143782D01*
X0063215Y0141965D01*
X0063687Y0141494D01*
X0063633Y0141463D01*
X0063335Y0141165D01*
X0063125Y0140800D01*
X0063015Y0140393D01*
X0063015Y0138224D01*
X0066968Y0138224D01*
X0066968Y0137024D01*
X0063015Y0137024D01*
X0063015Y0134854D01*
X0063125Y0134447D01*
X0063335Y0134082D01*
X0063633Y0133784D01*
X0063998Y0133574D01*
X0064405Y0133465D01*
X0066968Y0133465D01*
X0066968Y0137024D01*
X0068168Y0137024D01*
X0068168Y0138224D01*
X0072121Y0138224D01*
X0072121Y0140393D01*
X0072012Y0140800D01*
X0071801Y0141165D01*
X0071503Y0141463D01*
X0071450Y0141494D01*
X0071921Y0141965D01*
X0071921Y0148243D01*
X0071658Y0148506D01*
X0126623Y0148506D01*
X0126623Y0130284D01*
X0126086Y0130284D01*
X0125094Y0129873D01*
X0124334Y0129114D01*
X0123923Y0128121D01*
X0123923Y0112531D01*
X0121318Y0112531D01*
X0121318Y0106531D01*
X0120118Y0106531D01*
X0120118Y0112531D01*
X0116907Y0112531D01*
X0116500Y0112422D01*
X0116135Y0112211D01*
X0115838Y0111913D01*
X0115627Y0111548D01*
X0115518Y0111141D01*
X0115518Y0106531D01*
X0120118Y0106531D01*
X0120118Y0105331D01*
X0115518Y0105331D01*
X0115518Y0100720D01*
X0115627Y0100313D01*
X0115838Y0099948D01*
X0115902Y0099884D01*
X0115718Y0099700D01*
X0115718Y0096820D01*
X0114641Y0096820D01*
X0114641Y0097269D01*
X0110088Y0097269D01*
X0110088Y0097269D01*
X0105535Y0097269D01*
X0105535Y0096820D01*
X0090653Y0096820D01*
X0089661Y0096409D01*
X0087803Y0094551D01*
X0086541Y0094551D01*
X0085225Y0094006D01*
X0084889Y0093670D01*
X0068971Y0093670D01*
X0068971Y0094120D01*
X0068971Y0095315D01*
X0068862Y0095722D01*
X0068771Y0095879D01*
X0068771Y0098833D01*
X0068761Y0098844D01*
X0068771Y0098855D01*
X0068771Y0101983D01*
X0068761Y0101994D01*
X0068771Y0102004D01*
X0068771Y0105133D01*
X0068761Y0105143D01*
X0068771Y0105154D01*
X0068771Y0108282D01*
X0068761Y0108293D01*
X0068771Y0108304D01*
X0068771Y0111432D01*
X0067951Y0112252D01*
X0060886Y0112252D01*
X0060066Y0111432D01*
X0060066Y0109418D01*
X0058057Y0109418D01*
X0054323Y0113151D01*
X0054323Y0117326D01*
X0054762Y0117326D01*
X0055582Y0118146D01*
X0055582Y0125211D01*
X0055178Y0125616D01*
X0055534Y0125972D01*
X0056470Y0125972D01*
X0057376Y0126347D01*
X0057736Y0125987D01*
X0062833Y0125987D01*
X0063631Y0126785D01*
X0064429Y0125987D01*
X0067315Y0125987D01*
X0071185Y0122118D01*
X0071944Y0121358D01*
X0072068Y0121307D01*
X0069941Y0121307D01*
X0069121Y0120487D01*
X0069121Y0113422D01*
X0069941Y0112602D01*
X0073069Y0112602D01*
X0073080Y0112612D01*
X0073091Y0112602D01*
X0076219Y0112602D01*
X0076230Y0112612D01*
X0076240Y0112602D01*
X0079369Y0112602D01*
X0079379Y0112612D01*
X0079390Y0112602D01*
X0082518Y0112602D01*
X0082529Y0112612D01*
X0082540Y0112602D01*
X0085668Y0112602D01*
X0085678Y0112612D01*
X0085689Y0112602D01*
X0088817Y0112602D01*
X0088828Y0112612D01*
X0088839Y0112602D01*
X0091967Y0112602D01*
X0091978Y0112612D01*
X0091988Y0112602D01*
X0095117Y0112602D01*
X0095127Y0112612D01*
X0095138Y0112602D01*
X0098266Y0112602D01*
X0098277Y0112612D01*
X0098288Y0112602D01*
X0101416Y0112602D01*
X0101427Y0112612D01*
X0101437Y0112602D01*
X0104565Y0112602D01*
X0105386Y0113422D01*
X0105386Y0120487D01*
X0104565Y0121307D01*
X0101437Y0121307D01*
X0101427Y0121296D01*
X0101416Y0121307D01*
X0098288Y0121307D01*
X0098277Y0121296D01*
X0098266Y0121307D01*
X0095138Y0121307D01*
X0095127Y0121296D01*
X0095117Y0121307D01*
X0094637Y0121307D01*
X0098249Y0124919D01*
X0099746Y0125539D01*
X0100983Y0126777D01*
X0101653Y0128394D01*
X0101653Y0136145D01*
X0100983Y0137762D01*
X0099746Y0138999D01*
X0098128Y0139669D01*
X0096378Y0139669D01*
X0094761Y0138999D01*
X0093523Y0137762D01*
X0092853Y0136145D01*
X0092853Y0128394D01*
X0093215Y0127522D01*
X0088114Y0122421D01*
X0087703Y0121428D01*
X0087703Y0121307D01*
X0085689Y0121307D01*
X0085678Y0121296D01*
X0085668Y0121307D01*
X0084722Y0121307D01*
X0084846Y0121358D01*
X0088518Y0125031D01*
X0089746Y0125539D01*
X0090983Y0126777D01*
X0091653Y0128394D01*
X0091653Y0136145D01*
X0090983Y0137762D01*
X0089746Y0138999D01*
X0088128Y0139669D01*
X0086378Y0139669D01*
X0084761Y0138999D01*
X0083523Y0137762D01*
X0082853Y0136145D01*
X0082853Y0128394D01*
X0083261Y0127410D01*
X0082198Y0126347D01*
X0080816Y0126347D01*
X0081188Y0126858D01*
X0081516Y0127503D01*
X0081740Y0128192D01*
X0081853Y0128907D01*
X0081853Y0131869D01*
X0077653Y0131869D01*
X0077653Y0132669D01*
X0081853Y0132669D01*
X0081853Y0135631D01*
X0081740Y0136346D01*
X0081516Y0137035D01*
X0081188Y0137680D01*
X0080762Y0138266D01*
X0080250Y0138778D01*
X0079664Y0139204D01*
X0079019Y0139532D01*
X0078330Y0139756D01*
X0077653Y0139863D01*
X0077653Y0132669D01*
X0076853Y0132669D01*
X0076853Y0131869D01*
X0072653Y0131869D01*
X0072653Y0128907D01*
X0072767Y0128192D01*
X0072776Y0128163D01*
X0070346Y0130593D01*
X0070346Y0132298D01*
X0069526Y0133118D01*
X0064429Y0133118D01*
X0063631Y0132320D01*
X0062833Y0133118D01*
X0062197Y0133118D01*
X0062197Y0136782D01*
X0061980Y0137307D01*
X0061980Y0139187D01*
X0061160Y0140007D01*
X0057835Y0140007D01*
X0057754Y0139927D01*
X0057457Y0140098D01*
X0057051Y0140207D01*
X0055757Y0140207D01*
X0054464Y0140207D01*
X0054057Y0140098D01*
X0053760Y0139927D01*
X0053680Y0140007D01*
X0050354Y0140007D01*
X0049534Y0139187D01*
X0049534Y0137307D01*
X0049317Y0136782D01*
X0049317Y0133905D01*
X0048484Y0133905D01*
X0048013Y0133434D01*
X0047982Y0133488D01*
X0047758Y0133713D01*
X0047881Y0133784D01*
X0048179Y0134082D01*
X0048390Y0134447D01*
X0048499Y0134854D01*
X0048499Y0137024D01*
X0044546Y0137024D01*
X0044546Y0133465D01*
X0044743Y0133465D01*
X0044743Y0130153D01*
X0043543Y0130153D01*
X0043543Y0128953D01*
X0039984Y0128953D01*
X0039984Y0126389D01*
X0040093Y0125982D01*
X0040304Y0125618D01*
X0040447Y0125474D01*
X0040184Y0125211D01*
X0040184Y0124379D01*
X0040031Y0124379D01*
X0040031Y0124621D01*
X0039211Y0125441D01*
X0033327Y0125441D01*
X0032507Y0124621D01*
X0032507Y0118737D01*
X0033327Y0117917D01*
X0039211Y0117917D01*
X0040031Y0118737D01*
X0040031Y0118979D01*
X0040184Y0118979D01*
X0040184Y0118146D01*
X0041004Y0117326D01*
X0047282Y0117326D01*
X0047883Y0117927D01*
X0048484Y0117326D01*
X0048923Y0117326D01*
X0048923Y0111496D01*
X0049334Y0110504D01*
X0055409Y0104429D01*
X0056401Y0104018D01*
X0060066Y0104018D01*
X0060066Y0102004D01*
X0060077Y0101994D01*
X0060066Y0101983D01*
X0060066Y0098855D01*
X0060077Y0098844D01*
X0060066Y0098833D01*
X0060066Y0095879D01*
X0059975Y0095722D01*
X0059866Y0095315D01*
X0059866Y0094120D01*
X0064418Y0094120D01*
X0064418Y0094120D01*
X0059866Y0094120D01*
X0059866Y0093670D01*
X0059828Y0093670D01*
X0056287Y0097211D01*
X0056287Y0097686D01*
X0055742Y0099003D01*
X0055582Y0099162D01*
X0055582Y0099617D02*
X0060066Y0099617D01*
X0060066Y0100815D02*
X0055582Y0100815D01*
X0055158Y0102014D02*
X0060066Y0102014D01*
X0060066Y0103212D02*
X0024993Y0103212D01*
X0024993Y0102014D02*
X0025410Y0102014D01*
X0027420Y0102014D02*
X0028582Y0102014D01*
X0028582Y0102019D02*
X0028582Y0098638D01*
X0031963Y0098638D01*
X0031963Y0100630D01*
X0031854Y0101036D01*
X0031644Y0101401D01*
X0031346Y0101699D01*
X0030981Y0101910D01*
X0030574Y0102019D01*
X0028582Y0102019D01*
X0028582Y0100815D02*
X0027420Y0100815D01*
X0027420Y0099617D02*
X0028582Y0099617D01*
X0028582Y0098418D02*
X0032507Y0098418D01*
X0032507Y0097220D02*
X0031963Y0097220D01*
X0031963Y0096021D02*
X0032507Y0096021D01*
X0032799Y0094823D02*
X0031708Y0094823D01*
X0028582Y0094823D02*
X0027420Y0094823D01*
X0027420Y0096021D02*
X0028582Y0096021D01*
X0028582Y0097220D02*
X0027420Y0097220D01*
X0028001Y0098057D02*
X0028001Y0077269D01*
X0027608Y0076876D01*
X0043356Y0076876D01*
X0045442Y0076876D01*
X0047883Y0074435D01*
X0047883Y0067348D01*
X0047883Y0064198D02*
X0051427Y0064198D01*
X0053789Y0066561D01*
X0055954Y0063661D02*
X0057332Y0063661D01*
X0055991Y0062463D02*
X0053509Y0062463D01*
X0055029Y0061264D02*
X0055143Y0061264D01*
X0057427Y0058490D02*
X0059094Y0058490D01*
X0059094Y0058490D01*
X0057427Y0058490D01*
X0057427Y0058490D01*
X0059694Y0058490D02*
X0059694Y0058883D01*
X0059694Y0059090D02*
X0059694Y0062071D01*
X0059694Y0059090D01*
X0059694Y0059090D01*
X0059694Y0060066D02*
X0059694Y0060066D01*
X0059694Y0061264D02*
X0059694Y0061264D01*
X0059094Y0062463D02*
X0060294Y0062463D01*
X0059301Y0066364D02*
X0059694Y0067151D01*
X0063260Y0067257D02*
X0069616Y0067257D01*
X0069121Y0068455D02*
X0063260Y0068455D01*
X0063260Y0069654D02*
X0069121Y0069654D01*
X0069121Y0070853D02*
X0062816Y0070853D01*
X0063260Y0072051D02*
X0069121Y0072051D01*
X0069121Y0073250D02*
X0063260Y0073250D01*
X0063260Y0074448D02*
X0069121Y0074448D01*
X0068771Y0076845D02*
X0087703Y0076845D01*
X0087703Y0075647D02*
X0063260Y0075647D01*
X0060066Y0078044D02*
X0049335Y0078044D01*
X0049294Y0078301D02*
X0048998Y0079213D01*
X0048563Y0080066D01*
X0047999Y0080842D01*
X0047322Y0081519D01*
X0046547Y0082083D01*
X0045693Y0082518D01*
X0044781Y0082814D01*
X0043956Y0082945D01*
X0043956Y0077476D01*
X0049425Y0077476D01*
X0049294Y0078301D01*
X0048983Y0079242D02*
X0060066Y0079242D01*
X0060066Y0080441D02*
X0048291Y0080441D01*
X0047157Y0081639D02*
X0060066Y0081639D01*
X0060066Y0082838D02*
X0044631Y0082838D01*
X0043956Y0082838D02*
X0042756Y0082838D01*
X0042080Y0082838D02*
X0031682Y0082838D01*
X0031622Y0082884D02*
X0030803Y0083356D01*
X0029930Y0083718D01*
X0029017Y0083962D01*
X0028208Y0084069D01*
X0028208Y0077476D01*
X0034801Y0077476D01*
X0034694Y0078285D01*
X0034450Y0079198D01*
X0034088Y0080071D01*
X0033616Y0080890D01*
X0033040Y0081640D01*
X0032372Y0082308D01*
X0031622Y0082884D01*
X0033041Y0081639D02*
X0039554Y0081639D01*
X0038420Y0080441D02*
X0033875Y0080441D01*
X0034432Y0079242D02*
X0037729Y0079242D01*
X0037377Y0078044D02*
X0034726Y0078044D01*
X0034718Y0075647D02*
X0037386Y0075647D01*
X0042756Y0076845D02*
X0028208Y0076845D01*
X0028208Y0078044D02*
X0027008Y0078044D01*
X0027008Y0079242D02*
X0028208Y0079242D01*
X0028208Y0080441D02*
X0027008Y0080441D01*
X0027008Y0081639D02*
X0028208Y0081639D01*
X0028208Y0082838D02*
X0027008Y0082838D01*
X0027008Y0084036D02*
X0028208Y0084036D01*
X0028457Y0084036D02*
X0060066Y0084036D01*
X0060066Y0085235D02*
X0024993Y0085235D01*
X0024993Y0086433D02*
X0060066Y0086433D01*
X0060066Y0087632D02*
X0024993Y0087632D01*
X0024993Y0088830D02*
X0057031Y0088830D01*
X0055833Y0090029D02*
X0024993Y0090029D01*
X0024993Y0091227D02*
X0054634Y0091227D01*
X0053436Y0092426D02*
X0024993Y0092426D01*
X0024993Y0093624D02*
X0051435Y0093624D01*
X0056287Y0097220D02*
X0060066Y0097220D01*
X0060066Y0098418D02*
X0055984Y0098418D01*
X0057477Y0096021D02*
X0060066Y0096021D01*
X0059866Y0094823D02*
X0058676Y0094823D01*
X0059694Y0094120D02*
X0057726Y0096088D01*
X0057726Y0101994D01*
X0055757Y0103962D01*
X0028001Y0103962D01*
X0028001Y0121679D01*
X0028001Y0125419D01*
X0032135Y0129553D01*
X0044143Y0129553D01*
X0043946Y0129750D01*
X0043946Y0137624D01*
X0047467Y0141145D01*
X0047479Y0141145D01*
X0047698Y0141364D01*
X0055757Y0141364D01*
X0055757Y0136245D01*
X0055757Y0140207D01*
X0055757Y0136245D01*
X0055757Y0136245D01*
X0055757Y0136771D02*
X0055757Y0136771D01*
X0055757Y0137969D02*
X0055757Y0137969D01*
X0055757Y0139168D02*
X0055757Y0139168D01*
X0055757Y0141364D02*
X0063817Y0141364D01*
X0064036Y0141145D01*
X0064047Y0141145D01*
X0066682Y0138509D01*
X0071013Y0138509D01*
X0077253Y0132269D01*
X0076853Y0131977D02*
X0070346Y0131977D01*
X0070346Y0130778D02*
X0072653Y0130778D01*
X0072653Y0129580D02*
X0071360Y0129580D01*
X0072558Y0128381D02*
X0072737Y0128381D01*
X0072653Y0132669D02*
X0076853Y0132669D01*
X0076853Y0139863D01*
X0076176Y0139756D01*
X0075487Y0139532D01*
X0074842Y0139204D01*
X0074257Y0138778D01*
X0073745Y0138266D01*
X0073319Y0137680D01*
X0072990Y0137035D01*
X0072767Y0136346D01*
X0072653Y0135631D01*
X0072653Y0132669D01*
X0072653Y0133175D02*
X0062197Y0133175D01*
X0062197Y0134374D02*
X0063167Y0134374D01*
X0063015Y0135572D02*
X0062197Y0135572D01*
X0062197Y0136771D02*
X0063015Y0136771D01*
X0061980Y0137969D02*
X0066968Y0137969D01*
X0066682Y0138509D02*
X0067568Y0137624D01*
X0068168Y0137969D02*
X0073529Y0137969D01*
X0072904Y0136771D02*
X0072121Y0136771D01*
X0072121Y0137024D02*
X0068168Y0137024D01*
X0068168Y0133465D01*
X0070732Y0133465D01*
X0071139Y0133574D01*
X0071503Y0133784D01*
X0071801Y0134082D01*
X0072012Y0134447D01*
X0072121Y0134854D01*
X0072121Y0137024D01*
X0072121Y0135572D02*
X0072653Y0135572D01*
X0072653Y0134374D02*
X0071970Y0134374D01*
X0068168Y0134374D02*
X0066968Y0134374D01*
X0066968Y0135572D02*
X0068168Y0135572D01*
X0068168Y0136771D02*
X0066968Y0136771D01*
X0063015Y0139168D02*
X0061980Y0139168D01*
X0063015Y0140366D02*
X0048499Y0140366D01*
X0048499Y0139168D02*
X0049534Y0139168D01*
X0049534Y0137969D02*
X0044546Y0137969D01*
X0044546Y0136771D02*
X0043346Y0136771D01*
X0043346Y0137969D02*
X0024993Y0137969D01*
X0024993Y0136771D02*
X0039393Y0136771D01*
X0039393Y0135572D02*
X0024993Y0135572D01*
X0024993Y0134374D02*
X0039545Y0134374D01*
X0040123Y0133175D02*
X0024993Y0133175D01*
X0024993Y0131977D02*
X0039984Y0131977D01*
X0039984Y0130778D02*
X0024993Y0130778D01*
X0024993Y0129580D02*
X0043543Y0129580D01*
X0043543Y0130778D02*
X0044743Y0130778D01*
X0044743Y0131977D02*
X0043543Y0131977D01*
X0043543Y0133175D02*
X0044743Y0133175D01*
X0044546Y0134374D02*
X0043346Y0134374D01*
X0043346Y0135572D02*
X0044546Y0135572D01*
X0048499Y0135572D02*
X0049317Y0135572D01*
X0049317Y0134374D02*
X0048348Y0134374D01*
X0048499Y0136771D02*
X0049317Y0136771D01*
X0052017Y0136245D02*
X0052017Y0129946D01*
X0051623Y0129553D01*
X0055757Y0129553D01*
X0059694Y0129553D01*
X0059497Y0129750D01*
X0059497Y0136245D01*
X0059694Y0129553D02*
X0060285Y0129553D01*
X0056499Y0125984D02*
X0067319Y0125984D01*
X0068517Y0124786D02*
X0055582Y0124786D01*
X0055582Y0123587D02*
X0069716Y0123587D01*
X0070914Y0122389D02*
X0055582Y0122389D01*
X0055582Y0121190D02*
X0069824Y0121190D01*
X0069121Y0119991D02*
X0055582Y0119991D01*
X0055582Y0118793D02*
X0069121Y0118793D01*
X0069121Y0117594D02*
X0055031Y0117594D01*
X0054323Y0116396D02*
X0069121Y0116396D01*
X0069121Y0115197D02*
X0054323Y0115197D01*
X0054323Y0113999D02*
X0069121Y0113999D01*
X0069742Y0112800D02*
X0054674Y0112800D01*
X0055873Y0111602D02*
X0060236Y0111602D01*
X0060066Y0110403D02*
X0057071Y0110403D01*
X0056938Y0106718D02*
X0051623Y0112033D01*
X0051623Y0121679D01*
X0048216Y0117594D02*
X0047550Y0117594D01*
X0048923Y0116396D02*
X0024993Y0116396D01*
X0024993Y0117594D02*
X0040736Y0117594D01*
X0040184Y0118793D02*
X0040031Y0118793D01*
X0036269Y0121679D02*
X0044143Y0121679D01*
X0040184Y0124786D02*
X0039867Y0124786D01*
X0040093Y0125984D02*
X0024993Y0125984D01*
X0024993Y0127183D02*
X0039984Y0127183D01*
X0039984Y0128381D02*
X0024993Y0128381D01*
X0027420Y0124786D02*
X0028582Y0124786D01*
X0028582Y0125641D02*
X0028582Y0122260D01*
X0031963Y0122260D01*
X0031963Y0124252D01*
X0031854Y0124659D01*
X0031644Y0125023D01*
X0031346Y0125321D01*
X0030981Y0125532D01*
X0030574Y0125641D01*
X0028582Y0125641D01*
X0028582Y0123587D02*
X0027420Y0123587D01*
X0027420Y0122389D02*
X0028582Y0122389D01*
X0028582Y0121190D02*
X0032507Y0121190D01*
X0032507Y0119991D02*
X0031963Y0119991D01*
X0031880Y0118793D02*
X0032507Y0118793D01*
X0032507Y0122389D02*
X0031963Y0122389D01*
X0031963Y0123587D02*
X0032507Y0123587D01*
X0032672Y0124786D02*
X0031781Y0124786D01*
X0028582Y0119991D02*
X0027420Y0119991D01*
X0027420Y0118793D02*
X0028582Y0118793D01*
X0024993Y0115197D02*
X0048923Y0115197D01*
X0048923Y0113999D02*
X0024993Y0113999D01*
X0024993Y0112800D02*
X0048923Y0112800D01*
X0048923Y0111602D02*
X0024993Y0111602D01*
X0024993Y0110403D02*
X0049435Y0110403D01*
X0050633Y0109205D02*
X0024993Y0109205D01*
X0024993Y0108006D02*
X0051832Y0108006D01*
X0053030Y0106808D02*
X0024993Y0106808D01*
X0024993Y0105609D02*
X0054229Y0105609D01*
X0055453Y0104411D02*
X0024993Y0104411D01*
X0028001Y0103962D02*
X0028001Y0098057D01*
X0031963Y0099617D02*
X0032507Y0099617D01*
X0032507Y0100815D02*
X0031914Y0100815D01*
X0030593Y0102014D02*
X0040608Y0102014D01*
X0040184Y0100815D02*
X0040031Y0100815D01*
X0036269Y0098057D02*
X0044143Y0098057D01*
X0040184Y0094823D02*
X0039739Y0094823D01*
X0047678Y0102014D02*
X0048089Y0102014D01*
X0056938Y0106718D02*
X0064419Y0106718D01*
X0068771Y0106808D02*
X0105735Y0106808D01*
X0105735Y0108006D02*
X0068771Y0108006D01*
X0068771Y0109205D02*
X0105735Y0109205D01*
X0105735Y0108304D02*
X0105746Y0108293D01*
X0105735Y0108282D01*
X0105735Y0105154D01*
X0105746Y0105143D01*
X0105735Y0105133D01*
X0105735Y0102004D01*
X0105746Y0101994D01*
X0105735Y0101983D01*
X0105735Y0099029D01*
X0105644Y0098871D01*
X0105535Y0098464D01*
X0105535Y0097269D01*
X0110088Y0097269D01*
X0110088Y0097269D01*
X0114025Y0097269D01*
X0114812Y0098057D01*
X0114812Y0100025D01*
X0120718Y0105931D01*
X0120118Y0105609D02*
X0114441Y0105609D01*
X0114441Y0105154D02*
X0114441Y0108282D01*
X0114430Y0108293D01*
X0114441Y0108304D01*
X0114441Y0111432D01*
X0113621Y0112252D01*
X0106555Y0112252D01*
X0105735Y0111432D01*
X0105735Y0108304D01*
X0105735Y0110403D02*
X0068771Y0110403D01*
X0068601Y0111602D02*
X0105905Y0111602D01*
X0104764Y0112800D02*
X0123923Y0112800D01*
X0123923Y0113999D02*
X0105386Y0113999D01*
X0105386Y0115197D02*
X0123923Y0115197D01*
X0123923Y0116396D02*
X0105386Y0116396D01*
X0105386Y0117594D02*
X0123923Y0117594D01*
X0123923Y0118793D02*
X0105386Y0118793D01*
X0105386Y0119991D02*
X0123923Y0119991D01*
X0123923Y0121190D02*
X0104683Y0121190D01*
X0100191Y0125984D02*
X0123923Y0125984D01*
X0123923Y0124786D02*
X0098115Y0124786D01*
X0096917Y0123587D02*
X0123923Y0123587D01*
X0123923Y0122389D02*
X0095718Y0122389D01*
X0092876Y0127183D02*
X0091151Y0127183D01*
X0091648Y0128381D02*
X0092859Y0128381D01*
X0092853Y0129580D02*
X0091653Y0129580D01*
X0091653Y0130778D02*
X0092853Y0130778D01*
X0092853Y0131977D02*
X0091653Y0131977D01*
X0091653Y0133175D02*
X0092853Y0133175D01*
X0092853Y0134374D02*
X0091653Y0134374D01*
X0091653Y0135572D02*
X0092853Y0135572D01*
X0093113Y0136771D02*
X0091394Y0136771D01*
X0090776Y0137969D02*
X0093731Y0137969D01*
X0095167Y0139168D02*
X0089339Y0139168D01*
X0085167Y0139168D02*
X0079714Y0139168D01*
X0080978Y0137969D02*
X0083731Y0137969D01*
X0083113Y0136771D02*
X0081602Y0136771D01*
X0081853Y0135572D02*
X0082853Y0135572D01*
X0082853Y0134374D02*
X0081853Y0134374D01*
X0081853Y0133175D02*
X0082853Y0133175D01*
X0082853Y0131977D02*
X0077653Y0131977D01*
X0077653Y0133175D02*
X0076853Y0133175D01*
X0076853Y0134374D02*
X0077653Y0134374D01*
X0077653Y0135572D02*
X0076853Y0135572D01*
X0076853Y0136771D02*
X0077653Y0136771D01*
X0077653Y0137969D02*
X0076853Y0137969D01*
X0076853Y0139168D02*
X0077653Y0139168D01*
X0074793Y0139168D02*
X0072121Y0139168D01*
X0072121Y0140366D02*
X0126623Y0140366D01*
X0126623Y0139168D02*
X0099339Y0139168D01*
X0100776Y0137969D02*
X0126623Y0137969D01*
X0126623Y0136771D02*
X0101394Y0136771D01*
X0101653Y0135572D02*
X0126623Y0135572D01*
X0126623Y0134374D02*
X0101653Y0134374D01*
X0101653Y0133175D02*
X0126623Y0133175D01*
X0126623Y0131977D02*
X0101653Y0131977D01*
X0101653Y0130778D02*
X0126623Y0130778D01*
X0124800Y0129580D02*
X0101653Y0129580D01*
X0101648Y0128381D02*
X0124031Y0128381D01*
X0123923Y0127183D02*
X0101151Y0127183D01*
X0097253Y0127742D02*
X0090403Y0120891D01*
X0090403Y0116954D01*
X0088101Y0122389D02*
X0085876Y0122389D01*
X0087074Y0123587D02*
X0089280Y0123587D01*
X0088273Y0124786D02*
X0090479Y0124786D01*
X0090191Y0125984D02*
X0091677Y0125984D01*
X0087253Y0127584D02*
X0087253Y0132269D01*
X0082853Y0130778D02*
X0081853Y0130778D01*
X0081853Y0129580D02*
X0082853Y0129580D01*
X0082859Y0128381D02*
X0081770Y0128381D01*
X0081353Y0127183D02*
X0083033Y0127183D01*
X0083316Y0123647D02*
X0087253Y0127584D01*
X0083316Y0123647D02*
X0073474Y0123647D01*
X0067568Y0129553D01*
X0066978Y0129553D01*
X0063616Y0141565D02*
X0047899Y0141565D01*
X0048299Y0142763D02*
X0050311Y0142763D01*
X0053723Y0142763D02*
X0057792Y0142763D01*
X0057015Y0143962D02*
X0054500Y0143962D01*
X0054500Y0145160D02*
X0057015Y0145160D01*
X0056797Y0146359D02*
X0054717Y0146359D01*
X0054500Y0147557D02*
X0057015Y0147557D01*
X0059497Y0146482D02*
X0066190Y0146482D01*
X0067568Y0145104D01*
X0071921Y0145160D02*
X0126623Y0145160D01*
X0126623Y0143962D02*
X0071921Y0143962D01*
X0071921Y0142763D02*
X0126623Y0142763D01*
X0126623Y0141565D02*
X0071521Y0141565D01*
X0071921Y0146359D02*
X0126623Y0146359D01*
X0126623Y0147557D02*
X0071921Y0147557D01*
X0063215Y0142763D02*
X0061203Y0142763D01*
X0052017Y0146482D02*
X0045325Y0146482D01*
X0043946Y0145104D01*
X0039812Y0145104D01*
X0038041Y0143332D01*
X0034897Y0141565D02*
X0028280Y0141565D01*
X0027082Y0140366D02*
X0035942Y0140366D01*
X0034460Y0142763D02*
X0029479Y0142763D01*
X0030677Y0143962D02*
X0034460Y0143962D01*
X0034922Y0145160D02*
X0031876Y0145160D01*
X0033074Y0146359D02*
X0036003Y0146359D01*
X0034273Y0147557D02*
X0038680Y0147557D01*
X0039393Y0139168D02*
X0025883Y0139168D01*
X0059694Y0094120D02*
X0064419Y0094120D01*
X0068971Y0094120D01*
X0064419Y0094120D01*
X0064419Y0094120D01*
X0075442Y0094120D01*
X0075442Y0101797D01*
X0075639Y0101994D01*
X0075639Y0105575D01*
X0075286Y0105575D01*
X0074595Y0105437D01*
X0073943Y0105167D01*
X0073356Y0104775D01*
X0072857Y0104277D01*
X0072466Y0103690D01*
X0072196Y0103038D01*
X0072058Y0102346D01*
X0072058Y0101994D01*
X0075639Y0101994D01*
X0075639Y0101994D01*
X0075639Y0105575D01*
X0075992Y0105575D01*
X0076684Y0105437D01*
X0077335Y0105167D01*
X0077922Y0104775D01*
X0078421Y0104277D01*
X0078813Y0103690D01*
X0079083Y0103038D01*
X0079220Y0102346D01*
X0079220Y0101994D01*
X0075639Y0101994D01*
X0075639Y0101994D01*
X0075639Y0101994D01*
X0072058Y0101994D01*
X0072058Y0101641D01*
X0072196Y0100949D01*
X0072466Y0100297D01*
X0072857Y0099711D01*
X0073356Y0099212D01*
X0073943Y0098820D01*
X0074595Y0098550D01*
X0075286Y0098413D01*
X0075639Y0098413D01*
X0075639Y0101994D01*
X0079220Y0101994D01*
X0079220Y0101641D01*
X0079083Y0100949D01*
X0078813Y0100297D01*
X0078421Y0099711D01*
X0077922Y0099212D01*
X0077335Y0098820D01*
X0076684Y0098550D01*
X0075992Y0098413D01*
X0075639Y0098413D01*
X0075639Y0101994D01*
X0075639Y0101994D01*
X0075639Y0102014D02*
X0075639Y0102014D01*
X0075639Y0103212D02*
X0075639Y0103212D01*
X0075639Y0104411D02*
X0075639Y0104411D01*
X0072992Y0104411D02*
X0068771Y0104411D01*
X0068771Y0105609D02*
X0105735Y0105609D01*
X0105735Y0104411D02*
X0101515Y0104411D01*
X0101649Y0104277D02*
X0101150Y0104775D01*
X0100564Y0105167D01*
X0099912Y0105437D01*
X0099220Y0105575D01*
X0098867Y0105575D01*
X0098515Y0105575D01*
X0097823Y0105437D01*
X0097171Y0105167D01*
X0096585Y0104775D01*
X0096086Y0104277D01*
X0095694Y0103690D01*
X0095424Y0103038D01*
X0095286Y0102346D01*
X0095286Y0101994D01*
X0098867Y0101994D01*
X0098867Y0101994D01*
X0098867Y0105575D01*
X0098867Y0101994D01*
X0098867Y0101994D01*
X0095286Y0101994D01*
X0095286Y0101641D01*
X0095424Y0100949D01*
X0095694Y0100297D01*
X0096086Y0099711D01*
X0096585Y0099212D01*
X0097171Y0098820D01*
X0097823Y0098550D01*
X0098515Y0098413D01*
X0098867Y0098413D01*
X0098867Y0101994D01*
X0099064Y0101797D01*
X0099064Y0097269D01*
X0110088Y0097269D01*
X0114641Y0097269D01*
X0114641Y0098464D01*
X0114532Y0098871D01*
X0114441Y0099029D01*
X0114441Y0101983D01*
X0114430Y0101994D01*
X0114441Y0102004D01*
X0114441Y0105133D01*
X0114430Y0105143D01*
X0114441Y0105154D01*
X0114441Y0104411D02*
X0115518Y0104411D01*
X0115518Y0103212D02*
X0114441Y0103212D01*
X0114441Y0102014D02*
X0115518Y0102014D01*
X0115518Y0100815D02*
X0114441Y0100815D01*
X0114441Y0099617D02*
X0115718Y0099617D01*
X0115718Y0098418D02*
X0114641Y0098418D01*
X0114641Y0097220D02*
X0115718Y0097220D01*
X0115518Y0106808D02*
X0114441Y0106808D01*
X0114441Y0108006D02*
X0115518Y0108006D01*
X0115518Y0109205D02*
X0114441Y0109205D01*
X0114441Y0110403D02*
X0115518Y0110403D01*
X0115658Y0111602D02*
X0114271Y0111602D01*
X0120118Y0111602D02*
X0121318Y0111602D01*
X0121318Y0110403D02*
X0120118Y0110403D01*
X0120118Y0109205D02*
X0121318Y0109205D01*
X0121318Y0108006D02*
X0120118Y0108006D01*
X0120118Y0106808D02*
X0121318Y0106808D01*
X0105735Y0103212D02*
X0102239Y0103212D01*
X0102311Y0103038D02*
X0102041Y0103690D01*
X0101649Y0104277D01*
X0102311Y0103038D02*
X0102449Y0102346D01*
X0102449Y0101994D01*
X0098868Y0101994D01*
X0098868Y0101994D01*
X0102449Y0101994D01*
X0102449Y0101641D01*
X0102311Y0100949D01*
X0102041Y0100297D01*
X0101649Y0099711D01*
X0101150Y0099212D01*
X0100564Y0098820D01*
X0099912Y0098550D01*
X0099220Y0098413D01*
X0098867Y0098413D01*
X0098867Y0101994D01*
X0098867Y0101994D01*
X0098867Y0102014D02*
X0098867Y0102014D01*
X0098867Y0103212D02*
X0098867Y0103212D01*
X0098867Y0104411D02*
X0098867Y0104411D01*
X0096220Y0104411D02*
X0078286Y0104411D01*
X0079010Y0103212D02*
X0095496Y0103212D01*
X0095286Y0102014D02*
X0079220Y0102014D01*
X0079027Y0100815D02*
X0095479Y0100815D01*
X0096180Y0099617D02*
X0078327Y0099617D01*
X0076020Y0098418D02*
X0098486Y0098418D01*
X0098867Y0098418D02*
X0098867Y0098418D01*
X0099249Y0098418D02*
X0105535Y0098418D01*
X0105535Y0097220D02*
X0068771Y0097220D01*
X0068771Y0098418D02*
X0075258Y0098418D01*
X0075639Y0098418D02*
X0075639Y0098418D01*
X0075639Y0099617D02*
X0075639Y0099617D01*
X0075639Y0100815D02*
X0075639Y0100815D01*
X0072952Y0099617D02*
X0068771Y0099617D01*
X0068771Y0100815D02*
X0072251Y0100815D01*
X0072058Y0102014D02*
X0068771Y0102014D01*
X0068771Y0103212D02*
X0072268Y0103212D01*
X0068771Y0096021D02*
X0089273Y0096021D01*
X0088075Y0094823D02*
X0068971Y0094823D01*
X0075442Y0094120D02*
X0083316Y0094120D01*
X0086466Y0097269D01*
X0099064Y0097269D01*
X0098867Y0099617D02*
X0098867Y0099617D01*
X0098867Y0100815D02*
X0098867Y0100815D01*
X0101555Y0099617D02*
X0105735Y0099617D01*
X0105735Y0100815D02*
X0102255Y0100815D01*
X0102449Y0102014D02*
X0105735Y0102014D01*
X0105735Y0091227D02*
X0092116Y0091227D01*
X0090918Y0090029D02*
X0105735Y0090029D01*
X0105735Y0088830D02*
X0090178Y0088830D01*
X0088552Y0087632D02*
X0105735Y0087632D01*
X0105735Y0086433D02*
X0068771Y0086433D01*
X0068771Y0085235D02*
X0092792Y0085235D01*
X0091885Y0084036D02*
X0068771Y0084036D01*
X0068771Y0082838D02*
X0091546Y0082838D01*
X0090443Y0081639D02*
X0068771Y0081639D01*
X0068771Y0080441D02*
X0089244Y0080441D01*
X0088086Y0079242D02*
X0068771Y0079242D01*
X0068771Y0078044D02*
X0087703Y0078044D01*
X0090403Y0077781D02*
X0095127Y0082506D01*
X0096607Y0079242D02*
X0105735Y0079242D01*
X0105735Y0080441D02*
X0098127Y0080441D01*
X0098645Y0081639D02*
X0105735Y0081639D01*
X0105735Y0082838D02*
X0098708Y0082838D01*
X0098369Y0084036D02*
X0105735Y0084036D01*
X0105735Y0085235D02*
X0097463Y0085235D01*
X0090403Y0077781D02*
X0090403Y0071285D01*
X0090403Y0065380D01*
X0091190Y0064592D01*
X0084553Y0063661D02*
X0084235Y0063661D01*
X0084553Y0062463D02*
X0083605Y0062463D01*
X0084249Y0061264D02*
X0084553Y0061264D01*
X0084527Y0060066D02*
X0084553Y0060066D01*
X0084527Y0058867D02*
X0084631Y0058867D01*
X0084527Y0057669D02*
X0085358Y0057669D01*
X0078996Y0066058D02*
X0063275Y0066058D01*
X0059694Y0057890D02*
X0059694Y0054968D01*
X0059694Y0054968D01*
X0059694Y0057890D01*
X0059694Y0057890D01*
X0059694Y0057669D02*
X0059694Y0057669D01*
X0059694Y0056470D02*
X0059694Y0056470D01*
X0059694Y0055272D02*
X0059694Y0055272D01*
X0050489Y0070853D02*
X0048615Y0070853D01*
X0048615Y0072051D02*
X0050860Y0072051D01*
X0051874Y0073250D02*
X0048513Y0073250D01*
X0048952Y0074448D02*
X0053072Y0074448D01*
X0054271Y0075647D02*
X0049325Y0075647D01*
X0043956Y0076845D02*
X0055757Y0076845D01*
X0043956Y0078044D02*
X0042756Y0078044D01*
X0042756Y0079242D02*
X0043956Y0079242D01*
X0043956Y0080441D02*
X0042756Y0080441D01*
X0042756Y0081639D02*
X0043956Y0081639D01*
X0026758Y0084036D02*
X0024993Y0084036D01*
X0051032Y0039691D02*
X0052271Y0039691D01*
X0068771Y0087632D02*
X0085955Y0087632D01*
X0097253Y0127742D02*
X0097253Y0132269D01*
D25*
X0098867Y0101994D03*
X0087253Y0090970D03*
X0095127Y0082506D03*
X0075639Y0101994D03*
X0052706Y0096974D03*
X0053789Y0066561D03*
X0059694Y0066364D03*
X0059694Y0058490D03*
X0053789Y0042939D03*
X0057726Y0035261D03*
X0055757Y0129553D03*
X0038041Y0143332D03*
D26*
X0057135Y0073844D02*
X0053789Y0070498D01*
X0053789Y0066561D01*
X0059694Y0066364D02*
X0059694Y0067151D01*
X0059694Y0073844D02*
X0057135Y0073844D01*
M02*
