%
M48
M72
T24C0.0240
T40C0.0400
T60C0.0600
T75C0.0750
T138C0.1380
%
T24
X5379Y4294
X5773Y3526
X5969Y5849
X5969Y6636
X5379Y6656
X5271Y9697
X7564Y10199
X8725Y9097
X9513Y8251
X9887Y10199
X5576Y12955
X3804Y14333
T40
X7725Y13227
X8725Y13227
X9725Y13227
X10013Y5672
X11013Y5672
X12013Y5672
X9013Y5672
X8013Y5672
X7013Y5672
T60
X4336Y7688
X4336Y3262
T75
X2761Y3262
X2761Y7688
T138
X3410Y1341
X13843Y13940
M30
