G75*
%MOIN*%
%OFA0B0*%
%FSLAX25Y25*%
%IPPOS*%
%LPD*%
%AMOC8*
5,1,8,0,0,1.08239X$1,22.5*
%
%ADD10C,0.00600*%
%ADD11R,0.00787X0.00787*%
%ADD12C,0.00400*%
%ADD13C,0.00800*%
%ADD14C,0.01000*%
%ADD15C,0.00500*%
%ADD16C,0.03000*%
%ADD17R,0.03000X0.02000*%
%ADD18R,0.03000X0.04000*%
%ADD19C,0.00100*%
%ADD20C,0.00787*%
D10*
X0065127Y0054218D02*
X0065127Y0059218D01*
X0067627Y0061718D01*
X0072627Y0061718D01*
X0075127Y0059218D01*
X0077627Y0061718D01*
X0082627Y0061718D01*
X0085127Y0059218D01*
X0087627Y0061718D01*
X0092627Y0061718D01*
X0095127Y0059218D01*
X0097627Y0061718D01*
X0102627Y0061718D01*
X0105127Y0059218D01*
X0107627Y0061718D01*
X0112627Y0061718D01*
X0115127Y0059218D01*
X0117627Y0061718D01*
X0122627Y0061718D01*
X0125127Y0059218D01*
X0125127Y0054218D01*
X0122627Y0051718D01*
X0117627Y0051718D01*
X0115127Y0054218D01*
X0112627Y0051718D01*
X0107627Y0051718D01*
X0105127Y0054218D01*
X0105127Y0059218D01*
X0105127Y0054218D02*
X0102627Y0051718D01*
X0097627Y0051718D01*
X0095127Y0054218D01*
X0092627Y0051718D01*
X0087627Y0051718D01*
X0085127Y0054218D01*
X0082627Y0051718D01*
X0077627Y0051718D01*
X0075127Y0054218D01*
X0072627Y0051718D01*
X0067627Y0051718D01*
X0065127Y0054218D01*
X0075127Y0054218D02*
X0075127Y0059218D01*
X0085127Y0059218D02*
X0085127Y0054218D01*
X0095127Y0054218D02*
X0095127Y0059218D01*
X0115127Y0059218D02*
X0115127Y0054218D01*
X0116118Y0076309D02*
X0125318Y0076309D01*
X0125318Y0088309D01*
X0116118Y0088309D01*
X0116118Y0076309D01*
X0116118Y0088120D02*
X0125318Y0088120D01*
X0125318Y0100120D01*
X0116118Y0100120D01*
X0116118Y0088120D01*
X0116118Y0099931D02*
X0125318Y0099931D01*
X0125318Y0111931D01*
X0116118Y0111931D01*
X0116118Y0099931D01*
X0088961Y0117483D02*
X0087183Y0117483D01*
X0088961Y0117482D02*
X0089044Y0117484D01*
X0089127Y0117490D01*
X0089210Y0117500D01*
X0089293Y0117513D01*
X0089374Y0117531D01*
X0089455Y0117552D01*
X0089534Y0117577D01*
X0089612Y0117606D01*
X0089689Y0117638D01*
X0089764Y0117674D01*
X0089838Y0117713D01*
X0089909Y0117756D01*
X0089979Y0117802D01*
X0090046Y0117852D01*
X0090111Y0117904D01*
X0090173Y0117959D01*
X0090233Y0118018D01*
X0090290Y0118079D01*
X0090344Y0118142D01*
X0090395Y0118208D01*
X0090442Y0118277D01*
X0090487Y0118347D01*
X0090528Y0118420D01*
X0090565Y0118494D01*
X0090600Y0118570D01*
X0090630Y0118648D01*
X0090657Y0118726D01*
X0090680Y0118807D01*
X0090700Y0118888D01*
X0090715Y0118970D01*
X0090727Y0119052D01*
X0090735Y0119135D01*
X0090739Y0119218D01*
X0090739Y0119302D01*
X0090735Y0119385D01*
X0090727Y0119468D01*
X0090715Y0119550D01*
X0090700Y0119632D01*
X0090680Y0119713D01*
X0090657Y0119794D01*
X0090630Y0119872D01*
X0090600Y0119950D01*
X0090565Y0120026D01*
X0090528Y0120100D01*
X0090487Y0120173D01*
X0090442Y0120243D01*
X0090395Y0120312D01*
X0090344Y0120378D01*
X0090290Y0120441D01*
X0090233Y0120502D01*
X0090173Y0120561D01*
X0090111Y0120616D01*
X0090046Y0120668D01*
X0089979Y0120718D01*
X0089909Y0120764D01*
X0089838Y0120807D01*
X0089764Y0120846D01*
X0089689Y0120882D01*
X0089612Y0120914D01*
X0089534Y0120943D01*
X0089455Y0120968D01*
X0089374Y0120989D01*
X0089293Y0121007D01*
X0089210Y0121020D01*
X0089127Y0121030D01*
X0089044Y0121036D01*
X0088961Y0121038D01*
X0089316Y0121038D02*
X0087894Y0121038D01*
X0089316Y0121038D02*
X0089390Y0121040D01*
X0089465Y0121046D01*
X0089538Y0121056D01*
X0089612Y0121069D01*
X0089684Y0121086D01*
X0089755Y0121108D01*
X0089826Y0121132D01*
X0089894Y0121161D01*
X0089962Y0121193D01*
X0090027Y0121229D01*
X0090090Y0121267D01*
X0090152Y0121310D01*
X0090211Y0121355D01*
X0090268Y0121403D01*
X0090322Y0121454D01*
X0090373Y0121508D01*
X0090421Y0121565D01*
X0090466Y0121624D01*
X0090509Y0121686D01*
X0090547Y0121749D01*
X0090583Y0121814D01*
X0090615Y0121882D01*
X0090644Y0121950D01*
X0090668Y0122021D01*
X0090690Y0122092D01*
X0090707Y0122164D01*
X0090720Y0122238D01*
X0090730Y0122311D01*
X0090736Y0122386D01*
X0090738Y0122460D01*
X0090736Y0122534D01*
X0090730Y0122609D01*
X0090720Y0122682D01*
X0090707Y0122756D01*
X0090690Y0122828D01*
X0090668Y0122899D01*
X0090644Y0122970D01*
X0090615Y0123038D01*
X0090583Y0123106D01*
X0090547Y0123171D01*
X0090509Y0123234D01*
X0090466Y0123296D01*
X0090421Y0123355D01*
X0090373Y0123412D01*
X0090322Y0123466D01*
X0090268Y0123517D01*
X0090211Y0123565D01*
X0090152Y0123610D01*
X0090090Y0123653D01*
X0090027Y0123691D01*
X0089962Y0123727D01*
X0089894Y0123759D01*
X0089826Y0123788D01*
X0089755Y0123812D01*
X0089684Y0123834D01*
X0089612Y0123851D01*
X0089538Y0123864D01*
X0089465Y0123874D01*
X0089390Y0123880D01*
X0089316Y0123882D01*
X0089316Y0123883D02*
X0087183Y0123883D01*
X0084106Y0120149D02*
X0083217Y0120683D01*
X0082328Y0121216D01*
X0081795Y0118549D02*
X0081883Y0118499D01*
X0081972Y0118451D01*
X0082064Y0118407D01*
X0082157Y0118366D01*
X0082251Y0118329D01*
X0082347Y0118295D01*
X0082444Y0118264D01*
X0082542Y0118237D01*
X0082641Y0118213D01*
X0082740Y0118193D01*
X0082840Y0118177D01*
X0082941Y0118164D01*
X0083042Y0118155D01*
X0083144Y0118150D01*
X0083245Y0118148D01*
X0083347Y0118150D01*
X0083448Y0118155D01*
X0083549Y0118165D01*
X0083650Y0118177D01*
X0083750Y0118194D01*
X0083217Y0117483D02*
X0083217Y0123883D01*
X0082683Y0123172D02*
X0082620Y0123158D01*
X0082558Y0123141D01*
X0082498Y0123120D01*
X0082438Y0123096D01*
X0082381Y0123067D01*
X0082325Y0123036D01*
X0082271Y0123001D01*
X0082219Y0122963D01*
X0082170Y0122922D01*
X0082123Y0122878D01*
X0082079Y0122831D01*
X0082038Y0122781D01*
X0082000Y0122730D01*
X0081965Y0122676D01*
X0081933Y0122620D01*
X0081905Y0122562D01*
X0081881Y0122502D01*
X0081860Y0122442D01*
X0081843Y0122380D01*
X0081829Y0122317D01*
X0081820Y0122253D01*
X0081814Y0122189D01*
X0081812Y0122125D01*
X0081814Y0122061D01*
X0081820Y0121997D01*
X0081830Y0121934D01*
X0081843Y0121871D01*
X0081861Y0121809D01*
X0081882Y0121748D01*
X0081907Y0121689D01*
X0081935Y0121631D01*
X0081967Y0121575D01*
X0082002Y0121521D01*
X0082040Y0121470D01*
X0082081Y0121421D01*
X0082125Y0121374D01*
X0082172Y0121330D01*
X0082222Y0121289D01*
X0082274Y0121251D01*
X0082328Y0121216D01*
X0082684Y0123171D02*
X0082784Y0123188D01*
X0082885Y0123200D01*
X0082986Y0123210D01*
X0083087Y0123215D01*
X0083189Y0123217D01*
X0083290Y0123215D01*
X0083392Y0123210D01*
X0083493Y0123201D01*
X0083594Y0123188D01*
X0083694Y0123172D01*
X0083793Y0123152D01*
X0083892Y0123128D01*
X0083990Y0123101D01*
X0084087Y0123070D01*
X0084183Y0123036D01*
X0084277Y0122999D01*
X0084370Y0122958D01*
X0084461Y0122914D01*
X0084551Y0122866D01*
X0084639Y0122816D01*
X0084105Y0120150D02*
X0084159Y0120115D01*
X0084211Y0120077D01*
X0084261Y0120036D01*
X0084308Y0119992D01*
X0084352Y0119945D01*
X0084393Y0119896D01*
X0084431Y0119845D01*
X0084466Y0119791D01*
X0084498Y0119735D01*
X0084526Y0119677D01*
X0084551Y0119618D01*
X0084572Y0119557D01*
X0084590Y0119495D01*
X0084603Y0119432D01*
X0084613Y0119369D01*
X0084619Y0119305D01*
X0084621Y0119241D01*
X0084619Y0119177D01*
X0084613Y0119113D01*
X0084604Y0119049D01*
X0084590Y0118986D01*
X0084573Y0118924D01*
X0084552Y0118864D01*
X0084528Y0118804D01*
X0084500Y0118746D01*
X0084468Y0118690D01*
X0084433Y0118636D01*
X0084395Y0118585D01*
X0084354Y0118535D01*
X0084310Y0118488D01*
X0084264Y0118444D01*
X0084214Y0118403D01*
X0084162Y0118365D01*
X0084108Y0118330D01*
X0084052Y0118299D01*
X0083995Y0118270D01*
X0083935Y0118246D01*
X0083875Y0118225D01*
X0083813Y0118208D01*
X0083750Y0118194D01*
X0079046Y0119260D02*
X0079046Y0123883D01*
X0079046Y0119260D02*
X0079044Y0119177D01*
X0079038Y0119094D01*
X0079028Y0119011D01*
X0079015Y0118928D01*
X0078997Y0118847D01*
X0078976Y0118766D01*
X0078951Y0118687D01*
X0078922Y0118609D01*
X0078890Y0118532D01*
X0078854Y0118457D01*
X0078815Y0118383D01*
X0078772Y0118312D01*
X0078726Y0118242D01*
X0078676Y0118175D01*
X0078624Y0118110D01*
X0078569Y0118048D01*
X0078510Y0117988D01*
X0078449Y0117931D01*
X0078386Y0117877D01*
X0078320Y0117826D01*
X0078251Y0117779D01*
X0078181Y0117734D01*
X0078108Y0117693D01*
X0078034Y0117656D01*
X0077958Y0117621D01*
X0077880Y0117591D01*
X0077802Y0117564D01*
X0077721Y0117541D01*
X0077640Y0117521D01*
X0077558Y0117506D01*
X0077476Y0117494D01*
X0077393Y0117486D01*
X0077310Y0117482D01*
X0077226Y0117482D01*
X0077143Y0117486D01*
X0077060Y0117494D01*
X0076978Y0117506D01*
X0076896Y0117521D01*
X0076815Y0117541D01*
X0076734Y0117564D01*
X0076656Y0117591D01*
X0076578Y0117621D01*
X0076502Y0117656D01*
X0076428Y0117693D01*
X0076355Y0117734D01*
X0076285Y0117779D01*
X0076216Y0117826D01*
X0076150Y0117877D01*
X0076087Y0117931D01*
X0076026Y0117988D01*
X0075967Y0118048D01*
X0075912Y0118110D01*
X0075860Y0118175D01*
X0075810Y0118242D01*
X0075764Y0118312D01*
X0075721Y0118383D01*
X0075682Y0118457D01*
X0075646Y0118532D01*
X0075614Y0118609D01*
X0075585Y0118687D01*
X0075560Y0118766D01*
X0075539Y0118847D01*
X0075521Y0118928D01*
X0075508Y0119011D01*
X0075498Y0119094D01*
X0075492Y0119177D01*
X0075490Y0119260D01*
X0075490Y0123883D01*
X0072253Y0139769D02*
X0072253Y0149769D01*
X0082253Y0149769D01*
X0092253Y0149769D01*
X0102253Y0149769D01*
X0102253Y0139769D01*
X0092253Y0139769D01*
X0092253Y0149769D01*
X0092253Y0139769D02*
X0082253Y0139769D01*
X0082253Y0149769D01*
X0082253Y0139769D02*
X0072253Y0139769D01*
X0054360Y0116568D02*
X0054360Y0111234D01*
X0054359Y0111234D02*
X0054361Y0111170D01*
X0054367Y0111105D01*
X0054376Y0111042D01*
X0054390Y0110979D01*
X0054407Y0110917D01*
X0054428Y0110856D01*
X0054453Y0110796D01*
X0054481Y0110738D01*
X0054513Y0110682D01*
X0054548Y0110628D01*
X0054586Y0110576D01*
X0054627Y0110526D01*
X0054672Y0110480D01*
X0054718Y0110435D01*
X0054768Y0110394D01*
X0054820Y0110356D01*
X0054874Y0110321D01*
X0054930Y0110289D01*
X0054988Y0110261D01*
X0055048Y0110236D01*
X0055109Y0110215D01*
X0055171Y0110198D01*
X0055234Y0110184D01*
X0055297Y0110175D01*
X0055362Y0110169D01*
X0055426Y0110167D01*
X0051777Y0111590D02*
X0051777Y0113012D01*
X0051775Y0113086D01*
X0051769Y0113161D01*
X0051759Y0113234D01*
X0051746Y0113308D01*
X0051729Y0113380D01*
X0051707Y0113451D01*
X0051683Y0113522D01*
X0051654Y0113590D01*
X0051622Y0113658D01*
X0051586Y0113723D01*
X0051548Y0113786D01*
X0051505Y0113848D01*
X0051460Y0113907D01*
X0051412Y0113964D01*
X0051361Y0114018D01*
X0051307Y0114069D01*
X0051250Y0114117D01*
X0051191Y0114162D01*
X0051129Y0114205D01*
X0051066Y0114243D01*
X0051001Y0114279D01*
X0050933Y0114311D01*
X0050865Y0114340D01*
X0050794Y0114364D01*
X0050723Y0114386D01*
X0050651Y0114403D01*
X0050577Y0114416D01*
X0050504Y0114426D01*
X0050429Y0114432D01*
X0050355Y0114434D01*
X0050281Y0114432D01*
X0050206Y0114426D01*
X0050133Y0114416D01*
X0050059Y0114403D01*
X0049987Y0114386D01*
X0049916Y0114364D01*
X0049845Y0114340D01*
X0049777Y0114311D01*
X0049709Y0114279D01*
X0049644Y0114243D01*
X0049581Y0114205D01*
X0049519Y0114162D01*
X0049460Y0114117D01*
X0049403Y0114069D01*
X0049349Y0114018D01*
X0049298Y0113964D01*
X0049250Y0113907D01*
X0049205Y0113848D01*
X0049162Y0113786D01*
X0049124Y0113723D01*
X0049088Y0113658D01*
X0049056Y0113590D01*
X0049027Y0113522D01*
X0049003Y0113451D01*
X0048981Y0113380D01*
X0048964Y0113308D01*
X0048951Y0113234D01*
X0048941Y0113161D01*
X0048935Y0113086D01*
X0048933Y0113012D01*
X0048933Y0111590D01*
X0048935Y0111516D01*
X0048941Y0111441D01*
X0048951Y0111368D01*
X0048964Y0111294D01*
X0048981Y0111222D01*
X0049003Y0111151D01*
X0049027Y0111080D01*
X0049056Y0111012D01*
X0049088Y0110944D01*
X0049124Y0110879D01*
X0049162Y0110816D01*
X0049205Y0110754D01*
X0049250Y0110695D01*
X0049298Y0110638D01*
X0049349Y0110584D01*
X0049403Y0110533D01*
X0049460Y0110485D01*
X0049519Y0110440D01*
X0049581Y0110397D01*
X0049644Y0110359D01*
X0049709Y0110323D01*
X0049777Y0110291D01*
X0049845Y0110262D01*
X0049916Y0110238D01*
X0049987Y0110216D01*
X0050059Y0110199D01*
X0050133Y0110186D01*
X0050206Y0110176D01*
X0050281Y0110170D01*
X0050355Y0110168D01*
X0050429Y0110170D01*
X0050504Y0110176D01*
X0050577Y0110186D01*
X0050651Y0110199D01*
X0050723Y0110216D01*
X0050794Y0110238D01*
X0050865Y0110262D01*
X0050933Y0110291D01*
X0051001Y0110323D01*
X0051066Y0110359D01*
X0051129Y0110397D01*
X0051191Y0110440D01*
X0051250Y0110485D01*
X0051307Y0110533D01*
X0051361Y0110584D01*
X0051412Y0110638D01*
X0051460Y0110695D01*
X0051505Y0110754D01*
X0051548Y0110816D01*
X0051586Y0110879D01*
X0051622Y0110944D01*
X0051654Y0111012D01*
X0051683Y0111080D01*
X0051707Y0111151D01*
X0051729Y0111222D01*
X0051746Y0111294D01*
X0051759Y0111368D01*
X0051769Y0111441D01*
X0051775Y0111516D01*
X0051777Y0111590D01*
X0046997Y0113723D02*
X0046997Y0114434D01*
X0044864Y0114434D01*
X0044864Y0110168D01*
X0042350Y0110168D02*
X0041995Y0110168D01*
X0041995Y0110167D02*
X0041931Y0110169D01*
X0041866Y0110175D01*
X0041803Y0110184D01*
X0041740Y0110198D01*
X0041678Y0110215D01*
X0041617Y0110236D01*
X0041557Y0110261D01*
X0041499Y0110289D01*
X0041443Y0110321D01*
X0041389Y0110356D01*
X0041337Y0110394D01*
X0041287Y0110435D01*
X0041241Y0110480D01*
X0041196Y0110526D01*
X0041155Y0110576D01*
X0041117Y0110628D01*
X0041082Y0110682D01*
X0041050Y0110738D01*
X0041022Y0110796D01*
X0040997Y0110856D01*
X0040976Y0110917D01*
X0040959Y0110979D01*
X0040945Y0111042D01*
X0040936Y0111105D01*
X0040930Y0111170D01*
X0040928Y0111234D01*
X0040928Y0116568D01*
X0040217Y0114434D02*
X0042350Y0114434D01*
X0038033Y0113368D02*
X0038033Y0110168D01*
X0038034Y0113368D02*
X0038032Y0113432D01*
X0038026Y0113497D01*
X0038017Y0113560D01*
X0038003Y0113623D01*
X0037986Y0113685D01*
X0037965Y0113746D01*
X0037940Y0113806D01*
X0037912Y0113864D01*
X0037880Y0113920D01*
X0037845Y0113974D01*
X0037807Y0114026D01*
X0037766Y0114076D01*
X0037721Y0114122D01*
X0037675Y0114167D01*
X0037625Y0114208D01*
X0037573Y0114246D01*
X0037519Y0114281D01*
X0037463Y0114313D01*
X0037405Y0114341D01*
X0037345Y0114366D01*
X0037284Y0114387D01*
X0037222Y0114404D01*
X0037159Y0114418D01*
X0037096Y0114427D01*
X0037031Y0114433D01*
X0036967Y0114435D01*
X0036967Y0114434D02*
X0035189Y0114434D01*
X0035189Y0110168D01*
X0032495Y0111590D02*
X0032495Y0113012D01*
X0032493Y0113086D01*
X0032487Y0113161D01*
X0032477Y0113234D01*
X0032464Y0113308D01*
X0032447Y0113380D01*
X0032425Y0113451D01*
X0032401Y0113522D01*
X0032372Y0113590D01*
X0032340Y0113658D01*
X0032304Y0113723D01*
X0032266Y0113786D01*
X0032223Y0113848D01*
X0032178Y0113907D01*
X0032130Y0113964D01*
X0032079Y0114018D01*
X0032025Y0114069D01*
X0031968Y0114117D01*
X0031909Y0114162D01*
X0031847Y0114205D01*
X0031784Y0114243D01*
X0031719Y0114279D01*
X0031651Y0114311D01*
X0031583Y0114340D01*
X0031512Y0114364D01*
X0031441Y0114386D01*
X0031369Y0114403D01*
X0031295Y0114416D01*
X0031222Y0114426D01*
X0031147Y0114432D01*
X0031073Y0114434D01*
X0030999Y0114432D01*
X0030924Y0114426D01*
X0030851Y0114416D01*
X0030777Y0114403D01*
X0030705Y0114386D01*
X0030634Y0114364D01*
X0030563Y0114340D01*
X0030495Y0114311D01*
X0030427Y0114279D01*
X0030362Y0114243D01*
X0030299Y0114205D01*
X0030237Y0114162D01*
X0030178Y0114117D01*
X0030121Y0114069D01*
X0030067Y0114018D01*
X0030016Y0113964D01*
X0029968Y0113907D01*
X0029923Y0113848D01*
X0029880Y0113786D01*
X0029842Y0113723D01*
X0029806Y0113658D01*
X0029774Y0113590D01*
X0029745Y0113522D01*
X0029721Y0113451D01*
X0029699Y0113380D01*
X0029682Y0113308D01*
X0029669Y0113234D01*
X0029659Y0113161D01*
X0029653Y0113086D01*
X0029651Y0113012D01*
X0029650Y0113012D02*
X0029650Y0111590D01*
X0029651Y0111590D02*
X0029653Y0111516D01*
X0029659Y0111441D01*
X0029669Y0111368D01*
X0029682Y0111294D01*
X0029699Y0111222D01*
X0029721Y0111151D01*
X0029745Y0111080D01*
X0029774Y0111012D01*
X0029806Y0110944D01*
X0029842Y0110879D01*
X0029880Y0110816D01*
X0029923Y0110754D01*
X0029968Y0110695D01*
X0030016Y0110638D01*
X0030067Y0110584D01*
X0030121Y0110533D01*
X0030178Y0110485D01*
X0030237Y0110440D01*
X0030299Y0110397D01*
X0030362Y0110359D01*
X0030427Y0110323D01*
X0030495Y0110291D01*
X0030563Y0110262D01*
X0030634Y0110238D01*
X0030705Y0110216D01*
X0030777Y0110199D01*
X0030851Y0110186D01*
X0030924Y0110176D01*
X0030999Y0110170D01*
X0031073Y0110168D01*
X0031147Y0110170D01*
X0031222Y0110176D01*
X0031295Y0110186D01*
X0031369Y0110199D01*
X0031441Y0110216D01*
X0031512Y0110238D01*
X0031583Y0110262D01*
X0031651Y0110291D01*
X0031719Y0110323D01*
X0031784Y0110359D01*
X0031847Y0110397D01*
X0031909Y0110440D01*
X0031968Y0110485D01*
X0032025Y0110533D01*
X0032079Y0110584D01*
X0032130Y0110638D01*
X0032178Y0110695D01*
X0032223Y0110754D01*
X0032266Y0110816D01*
X0032304Y0110879D01*
X0032340Y0110944D01*
X0032372Y0111012D01*
X0032401Y0111080D01*
X0032425Y0111151D01*
X0032447Y0111222D01*
X0032464Y0111294D01*
X0032477Y0111368D01*
X0032487Y0111441D01*
X0032493Y0111516D01*
X0032495Y0111590D01*
X0027406Y0110168D02*
X0025983Y0110168D01*
X0025909Y0110170D01*
X0025834Y0110176D01*
X0025761Y0110186D01*
X0025687Y0110199D01*
X0025615Y0110216D01*
X0025544Y0110238D01*
X0025473Y0110262D01*
X0025405Y0110291D01*
X0025337Y0110323D01*
X0025272Y0110359D01*
X0025209Y0110397D01*
X0025147Y0110440D01*
X0025088Y0110485D01*
X0025031Y0110533D01*
X0024977Y0110584D01*
X0024926Y0110638D01*
X0024878Y0110695D01*
X0024833Y0110754D01*
X0024790Y0110816D01*
X0024752Y0110879D01*
X0024716Y0110944D01*
X0024684Y0111012D01*
X0024655Y0111080D01*
X0024631Y0111151D01*
X0024609Y0111222D01*
X0024592Y0111294D01*
X0024579Y0111368D01*
X0024569Y0111441D01*
X0024563Y0111516D01*
X0024561Y0111590D01*
X0024561Y0115145D01*
X0024563Y0115219D01*
X0024569Y0115294D01*
X0024579Y0115367D01*
X0024592Y0115441D01*
X0024609Y0115513D01*
X0024631Y0115584D01*
X0024655Y0115655D01*
X0024684Y0115723D01*
X0024716Y0115791D01*
X0024752Y0115856D01*
X0024790Y0115919D01*
X0024833Y0115981D01*
X0024878Y0116040D01*
X0024926Y0116096D01*
X0024977Y0116151D01*
X0025031Y0116202D01*
X0025088Y0116250D01*
X0025147Y0116295D01*
X0025209Y0116338D01*
X0025272Y0116376D01*
X0025337Y0116412D01*
X0025405Y0116444D01*
X0025473Y0116473D01*
X0025544Y0116497D01*
X0025615Y0116519D01*
X0025687Y0116536D01*
X0025761Y0116549D01*
X0025834Y0116559D01*
X0025909Y0116565D01*
X0025983Y0116567D01*
X0025983Y0116568D02*
X0027406Y0116568D01*
X0026530Y0094914D02*
X0028307Y0094914D01*
X0026530Y0094914D02*
X0026530Y0088514D01*
X0026530Y0091359D02*
X0028307Y0091359D01*
X0028307Y0091358D02*
X0028390Y0091360D01*
X0028473Y0091366D01*
X0028556Y0091376D01*
X0028639Y0091389D01*
X0028720Y0091407D01*
X0028801Y0091428D01*
X0028880Y0091453D01*
X0028958Y0091482D01*
X0029035Y0091514D01*
X0029110Y0091550D01*
X0029184Y0091589D01*
X0029255Y0091632D01*
X0029325Y0091678D01*
X0029392Y0091728D01*
X0029457Y0091780D01*
X0029519Y0091835D01*
X0029579Y0091894D01*
X0029636Y0091955D01*
X0029690Y0092018D01*
X0029741Y0092084D01*
X0029788Y0092153D01*
X0029833Y0092223D01*
X0029874Y0092296D01*
X0029911Y0092370D01*
X0029946Y0092446D01*
X0029976Y0092524D01*
X0030003Y0092602D01*
X0030026Y0092683D01*
X0030046Y0092764D01*
X0030061Y0092846D01*
X0030073Y0092928D01*
X0030081Y0093011D01*
X0030085Y0093094D01*
X0030085Y0093178D01*
X0030081Y0093261D01*
X0030073Y0093344D01*
X0030061Y0093426D01*
X0030046Y0093508D01*
X0030026Y0093589D01*
X0030003Y0093670D01*
X0029976Y0093748D01*
X0029946Y0093826D01*
X0029911Y0093902D01*
X0029874Y0093976D01*
X0029833Y0094049D01*
X0029788Y0094119D01*
X0029741Y0094188D01*
X0029690Y0094254D01*
X0029636Y0094317D01*
X0029579Y0094378D01*
X0029519Y0094437D01*
X0029457Y0094492D01*
X0029392Y0094544D01*
X0029325Y0094594D01*
X0029255Y0094640D01*
X0029184Y0094683D01*
X0029110Y0094722D01*
X0029035Y0094758D01*
X0028958Y0094790D01*
X0028880Y0094819D01*
X0028801Y0094844D01*
X0028720Y0094865D01*
X0028639Y0094883D01*
X0028556Y0094896D01*
X0028473Y0094906D01*
X0028390Y0094912D01*
X0028307Y0094914D01*
X0032341Y0091359D02*
X0032341Y0089936D01*
X0032343Y0089862D01*
X0032349Y0089787D01*
X0032359Y0089714D01*
X0032372Y0089640D01*
X0032389Y0089568D01*
X0032411Y0089497D01*
X0032435Y0089426D01*
X0032464Y0089358D01*
X0032496Y0089290D01*
X0032532Y0089225D01*
X0032570Y0089162D01*
X0032613Y0089100D01*
X0032658Y0089041D01*
X0032706Y0088984D01*
X0032757Y0088930D01*
X0032811Y0088879D01*
X0032868Y0088831D01*
X0032927Y0088786D01*
X0032989Y0088743D01*
X0033052Y0088705D01*
X0033117Y0088669D01*
X0033185Y0088637D01*
X0033253Y0088608D01*
X0033324Y0088584D01*
X0033395Y0088562D01*
X0033467Y0088545D01*
X0033541Y0088532D01*
X0033614Y0088522D01*
X0033689Y0088516D01*
X0033763Y0088514D01*
X0033837Y0088516D01*
X0033912Y0088522D01*
X0033985Y0088532D01*
X0034059Y0088545D01*
X0034131Y0088562D01*
X0034202Y0088584D01*
X0034273Y0088608D01*
X0034341Y0088637D01*
X0034409Y0088669D01*
X0034474Y0088705D01*
X0034537Y0088743D01*
X0034599Y0088786D01*
X0034658Y0088831D01*
X0034715Y0088879D01*
X0034769Y0088930D01*
X0034820Y0088984D01*
X0034868Y0089041D01*
X0034913Y0089100D01*
X0034956Y0089162D01*
X0034994Y0089225D01*
X0035030Y0089290D01*
X0035062Y0089358D01*
X0035091Y0089426D01*
X0035115Y0089497D01*
X0035137Y0089568D01*
X0035154Y0089640D01*
X0035167Y0089714D01*
X0035177Y0089787D01*
X0035183Y0089862D01*
X0035185Y0089936D01*
X0035185Y0091359D01*
X0035183Y0091433D01*
X0035177Y0091508D01*
X0035167Y0091581D01*
X0035154Y0091655D01*
X0035137Y0091727D01*
X0035115Y0091798D01*
X0035091Y0091869D01*
X0035062Y0091937D01*
X0035030Y0092005D01*
X0034994Y0092070D01*
X0034956Y0092133D01*
X0034913Y0092195D01*
X0034868Y0092254D01*
X0034820Y0092311D01*
X0034769Y0092365D01*
X0034715Y0092416D01*
X0034658Y0092464D01*
X0034599Y0092509D01*
X0034537Y0092552D01*
X0034474Y0092590D01*
X0034409Y0092626D01*
X0034341Y0092658D01*
X0034273Y0092687D01*
X0034202Y0092711D01*
X0034131Y0092733D01*
X0034059Y0092750D01*
X0033985Y0092763D01*
X0033912Y0092773D01*
X0033837Y0092779D01*
X0033763Y0092781D01*
X0033689Y0092779D01*
X0033614Y0092773D01*
X0033541Y0092763D01*
X0033467Y0092750D01*
X0033395Y0092733D01*
X0033324Y0092711D01*
X0033253Y0092687D01*
X0033185Y0092658D01*
X0033117Y0092626D01*
X0033052Y0092590D01*
X0032989Y0092552D01*
X0032927Y0092509D01*
X0032868Y0092464D01*
X0032811Y0092416D01*
X0032757Y0092365D01*
X0032706Y0092311D01*
X0032658Y0092254D01*
X0032613Y0092195D01*
X0032570Y0092133D01*
X0032532Y0092070D01*
X0032496Y0092005D01*
X0032464Y0091937D01*
X0032435Y0091869D01*
X0032411Y0091798D01*
X0032389Y0091727D01*
X0032372Y0091655D01*
X0032359Y0091581D01*
X0032349Y0091508D01*
X0032343Y0091433D01*
X0032341Y0091359D01*
X0037579Y0092781D02*
X0038645Y0088514D01*
X0039712Y0091359D01*
X0040779Y0088514D01*
X0041845Y0092781D01*
X0044239Y0091359D02*
X0044239Y0089581D01*
X0044238Y0089581D02*
X0044240Y0089517D01*
X0044246Y0089452D01*
X0044255Y0089389D01*
X0044269Y0089326D01*
X0044286Y0089264D01*
X0044307Y0089203D01*
X0044332Y0089143D01*
X0044360Y0089085D01*
X0044392Y0089029D01*
X0044427Y0088975D01*
X0044465Y0088923D01*
X0044506Y0088873D01*
X0044551Y0088827D01*
X0044597Y0088782D01*
X0044647Y0088741D01*
X0044699Y0088703D01*
X0044753Y0088668D01*
X0044809Y0088636D01*
X0044867Y0088608D01*
X0044927Y0088583D01*
X0044988Y0088562D01*
X0045050Y0088545D01*
X0045113Y0088531D01*
X0045176Y0088522D01*
X0045241Y0088516D01*
X0045305Y0088514D01*
X0047083Y0088514D01*
X0047083Y0090648D02*
X0044239Y0090648D01*
X0044239Y0091359D02*
X0044241Y0091433D01*
X0044247Y0091508D01*
X0044257Y0091581D01*
X0044270Y0091655D01*
X0044287Y0091727D01*
X0044309Y0091798D01*
X0044333Y0091869D01*
X0044362Y0091937D01*
X0044394Y0092005D01*
X0044430Y0092070D01*
X0044468Y0092133D01*
X0044511Y0092195D01*
X0044556Y0092254D01*
X0044604Y0092311D01*
X0044655Y0092365D01*
X0044709Y0092416D01*
X0044766Y0092464D01*
X0044825Y0092509D01*
X0044887Y0092552D01*
X0044950Y0092590D01*
X0045015Y0092626D01*
X0045083Y0092658D01*
X0045151Y0092687D01*
X0045222Y0092711D01*
X0045293Y0092733D01*
X0045365Y0092750D01*
X0045439Y0092763D01*
X0045512Y0092773D01*
X0045587Y0092779D01*
X0045661Y0092781D01*
X0045735Y0092779D01*
X0045810Y0092773D01*
X0045883Y0092763D01*
X0045957Y0092750D01*
X0046029Y0092733D01*
X0046100Y0092711D01*
X0046171Y0092687D01*
X0046239Y0092658D01*
X0046307Y0092626D01*
X0046372Y0092590D01*
X0046435Y0092552D01*
X0046497Y0092509D01*
X0046556Y0092464D01*
X0046613Y0092416D01*
X0046667Y0092365D01*
X0046718Y0092311D01*
X0046766Y0092254D01*
X0046811Y0092195D01*
X0046854Y0092133D01*
X0046892Y0092070D01*
X0046928Y0092005D01*
X0046960Y0091937D01*
X0046989Y0091869D01*
X0047013Y0091798D01*
X0047035Y0091727D01*
X0047052Y0091655D01*
X0047065Y0091581D01*
X0047075Y0091508D01*
X0047081Y0091433D01*
X0047083Y0091359D01*
X0047083Y0090648D01*
X0049811Y0092781D02*
X0049811Y0088514D01*
X0051944Y0092070D02*
X0051944Y0092781D01*
X0049811Y0092781D01*
D11*
X0031741Y0098057D03*
X0031741Y0121679D03*
D12*
X0032976Y0119753D02*
X0033045Y0119755D01*
X0033114Y0119760D01*
X0033183Y0119770D01*
X0033251Y0119783D01*
X0033318Y0119800D01*
X0033384Y0119820D01*
X0033449Y0119844D01*
X0033513Y0119871D01*
X0033575Y0119902D01*
X0033635Y0119936D01*
X0033693Y0119973D01*
X0033749Y0120014D01*
X0033803Y0120057D01*
X0033855Y0120103D01*
X0033904Y0120152D01*
X0033950Y0120204D01*
X0033993Y0120258D01*
X0034034Y0120314D01*
X0034071Y0120372D01*
X0034105Y0120432D01*
X0034136Y0120494D01*
X0034163Y0120558D01*
X0034187Y0120623D01*
X0034207Y0120689D01*
X0034224Y0120756D01*
X0034237Y0120824D01*
X0034247Y0120893D01*
X0034252Y0120962D01*
X0034254Y0121031D01*
X0034254Y0123075D01*
X0034252Y0123144D01*
X0034247Y0123213D01*
X0034237Y0123282D01*
X0034224Y0123350D01*
X0034207Y0123417D01*
X0034187Y0123483D01*
X0034163Y0123548D01*
X0034136Y0123612D01*
X0034105Y0123674D01*
X0034071Y0123734D01*
X0034034Y0123792D01*
X0033993Y0123848D01*
X0033950Y0123902D01*
X0033904Y0123954D01*
X0033855Y0124003D01*
X0033803Y0124049D01*
X0033749Y0124092D01*
X0033693Y0124133D01*
X0033635Y0124170D01*
X0033575Y0124204D01*
X0033513Y0124235D01*
X0033449Y0124262D01*
X0033384Y0124286D01*
X0033318Y0124306D01*
X0033251Y0124323D01*
X0033183Y0124336D01*
X0033114Y0124346D01*
X0033045Y0124351D01*
X0032976Y0124353D01*
X0031698Y0124353D01*
X0031698Y0119753D01*
X0032976Y0119753D01*
X0029851Y0119753D02*
X0027807Y0119753D01*
X0027807Y0124353D01*
X0029851Y0124353D01*
X0029340Y0122308D02*
X0027807Y0122308D01*
X0025951Y0119753D02*
X0023907Y0119753D01*
X0023907Y0124353D01*
X0036348Y0123331D02*
X0037626Y0124353D01*
X0037626Y0119753D01*
X0036348Y0119753D02*
X0038904Y0119753D01*
X0045125Y0119753D02*
X0045125Y0124353D01*
X0046403Y0124353D01*
X0046473Y0124351D01*
X0046544Y0124345D01*
X0046613Y0124336D01*
X0046682Y0124322D01*
X0046751Y0124305D01*
X0046818Y0124284D01*
X0046884Y0124259D01*
X0046948Y0124231D01*
X0047011Y0124199D01*
X0047072Y0124164D01*
X0047131Y0124125D01*
X0047188Y0124084D01*
X0047242Y0124039D01*
X0047294Y0123991D01*
X0047343Y0123941D01*
X0047390Y0123887D01*
X0047433Y0123832D01*
X0047473Y0123774D01*
X0047510Y0123714D01*
X0047543Y0123652D01*
X0047573Y0123588D01*
X0047600Y0123523D01*
X0047623Y0123457D01*
X0047642Y0123389D01*
X0047657Y0123320D01*
X0047669Y0123251D01*
X0047677Y0123181D01*
X0047681Y0123110D01*
X0047681Y0123040D01*
X0047677Y0122969D01*
X0047669Y0122899D01*
X0047657Y0122830D01*
X0047642Y0122761D01*
X0047623Y0122693D01*
X0047600Y0122627D01*
X0047573Y0122562D01*
X0047543Y0122498D01*
X0047510Y0122436D01*
X0047473Y0122376D01*
X0047433Y0122318D01*
X0047390Y0122263D01*
X0047343Y0122209D01*
X0047294Y0122159D01*
X0047242Y0122111D01*
X0047188Y0122066D01*
X0047131Y0122025D01*
X0047072Y0121986D01*
X0047011Y0121951D01*
X0046948Y0121919D01*
X0046884Y0121891D01*
X0046818Y0121866D01*
X0046751Y0121845D01*
X0046682Y0121828D01*
X0046613Y0121814D01*
X0046544Y0121805D01*
X0046473Y0121799D01*
X0046403Y0121797D01*
X0045125Y0121797D01*
X0046658Y0121797D02*
X0047681Y0119753D01*
X0049596Y0119753D02*
X0050874Y0119753D01*
X0050944Y0119755D01*
X0051015Y0119761D01*
X0051084Y0119770D01*
X0051153Y0119784D01*
X0051222Y0119801D01*
X0051289Y0119822D01*
X0051355Y0119847D01*
X0051419Y0119875D01*
X0051482Y0119907D01*
X0051543Y0119942D01*
X0051602Y0119981D01*
X0051659Y0120022D01*
X0051713Y0120067D01*
X0051765Y0120115D01*
X0051814Y0120165D01*
X0051861Y0120219D01*
X0051904Y0120274D01*
X0051944Y0120332D01*
X0051981Y0120392D01*
X0052014Y0120454D01*
X0052044Y0120518D01*
X0052071Y0120583D01*
X0052094Y0120649D01*
X0052113Y0120717D01*
X0052128Y0120786D01*
X0052140Y0120855D01*
X0052148Y0120925D01*
X0052152Y0120996D01*
X0052152Y0121066D01*
X0052148Y0121137D01*
X0052140Y0121207D01*
X0052128Y0121276D01*
X0052113Y0121345D01*
X0052094Y0121413D01*
X0052071Y0121479D01*
X0052044Y0121544D01*
X0052014Y0121608D01*
X0051981Y0121670D01*
X0051944Y0121730D01*
X0051904Y0121788D01*
X0051861Y0121843D01*
X0051814Y0121897D01*
X0051765Y0121947D01*
X0051713Y0121995D01*
X0051659Y0122040D01*
X0051602Y0122081D01*
X0051543Y0122120D01*
X0051482Y0122155D01*
X0051419Y0122187D01*
X0051355Y0122215D01*
X0051289Y0122240D01*
X0051222Y0122261D01*
X0051153Y0122278D01*
X0051084Y0122292D01*
X0051015Y0122301D01*
X0050944Y0122307D01*
X0050874Y0122309D01*
X0051129Y0122308D02*
X0050107Y0122308D01*
X0051129Y0122309D02*
X0051192Y0122311D01*
X0051255Y0122317D01*
X0051317Y0122326D01*
X0051378Y0122340D01*
X0051439Y0122357D01*
X0051498Y0122378D01*
X0051556Y0122403D01*
X0051613Y0122431D01*
X0051667Y0122462D01*
X0051719Y0122497D01*
X0051770Y0122535D01*
X0051818Y0122576D01*
X0051863Y0122620D01*
X0051905Y0122666D01*
X0051945Y0122715D01*
X0051981Y0122766D01*
X0052014Y0122820D01*
X0052044Y0122875D01*
X0052070Y0122933D01*
X0052093Y0122991D01*
X0052112Y0123051D01*
X0052127Y0123112D01*
X0052139Y0123174D01*
X0052147Y0123237D01*
X0052151Y0123300D01*
X0052151Y0123362D01*
X0052147Y0123425D01*
X0052139Y0123488D01*
X0052127Y0123550D01*
X0052112Y0123611D01*
X0052093Y0123671D01*
X0052070Y0123729D01*
X0052044Y0123787D01*
X0052014Y0123842D01*
X0051981Y0123896D01*
X0051945Y0123947D01*
X0051905Y0123996D01*
X0051863Y0124042D01*
X0051818Y0124086D01*
X0051770Y0124127D01*
X0051719Y0124165D01*
X0051667Y0124200D01*
X0051613Y0124231D01*
X0051556Y0124259D01*
X0051498Y0124284D01*
X0051439Y0124305D01*
X0051378Y0124322D01*
X0051317Y0124336D01*
X0051255Y0124345D01*
X0051192Y0124351D01*
X0051129Y0124353D01*
X0049596Y0124353D01*
X0049437Y0127627D02*
X0049437Y0132227D01*
X0048159Y0131205D01*
X0046441Y0132227D02*
X0045418Y0132227D01*
X0045356Y0132225D01*
X0045295Y0132220D01*
X0045234Y0132210D01*
X0045173Y0132197D01*
X0045114Y0132181D01*
X0045056Y0132161D01*
X0044999Y0132137D01*
X0044943Y0132110D01*
X0044889Y0132080D01*
X0044837Y0132046D01*
X0044788Y0132009D01*
X0044740Y0131970D01*
X0044695Y0131928D01*
X0044653Y0131883D01*
X0044613Y0131835D01*
X0044577Y0131786D01*
X0044543Y0131734D01*
X0044513Y0131680D01*
X0044486Y0131624D01*
X0044462Y0131567D01*
X0044442Y0131509D01*
X0044426Y0131450D01*
X0044413Y0131389D01*
X0044403Y0131328D01*
X0044398Y0131267D01*
X0044396Y0131205D01*
X0044396Y0128649D01*
X0044398Y0128587D01*
X0044403Y0128526D01*
X0044413Y0128465D01*
X0044426Y0128404D01*
X0044442Y0128345D01*
X0044462Y0128287D01*
X0044486Y0128230D01*
X0044513Y0128174D01*
X0044543Y0128120D01*
X0044577Y0128068D01*
X0044613Y0128019D01*
X0044653Y0127971D01*
X0044695Y0127926D01*
X0044740Y0127884D01*
X0044788Y0127844D01*
X0044837Y0127808D01*
X0044889Y0127774D01*
X0044943Y0127744D01*
X0044999Y0127717D01*
X0045056Y0127693D01*
X0045114Y0127673D01*
X0045173Y0127657D01*
X0045234Y0127644D01*
X0045295Y0127634D01*
X0045356Y0127629D01*
X0045418Y0127627D01*
X0046441Y0127627D01*
X0048159Y0127627D02*
X0050715Y0127627D01*
X0057394Y0127625D02*
X0057394Y0130947D01*
X0059950Y0130947D02*
X0059950Y0127625D01*
X0059948Y0127555D01*
X0059942Y0127484D01*
X0059933Y0127415D01*
X0059919Y0127346D01*
X0059902Y0127277D01*
X0059881Y0127210D01*
X0059856Y0127144D01*
X0059828Y0127080D01*
X0059796Y0127017D01*
X0059761Y0126956D01*
X0059722Y0126897D01*
X0059681Y0126840D01*
X0059636Y0126786D01*
X0059588Y0126734D01*
X0059538Y0126685D01*
X0059484Y0126638D01*
X0059429Y0126595D01*
X0059371Y0126555D01*
X0059311Y0126518D01*
X0059249Y0126485D01*
X0059185Y0126455D01*
X0059120Y0126428D01*
X0059054Y0126405D01*
X0058986Y0126386D01*
X0058917Y0126371D01*
X0058848Y0126359D01*
X0058778Y0126351D01*
X0058707Y0126347D01*
X0058637Y0126347D01*
X0058566Y0126351D01*
X0058496Y0126359D01*
X0058427Y0126371D01*
X0058358Y0126386D01*
X0058290Y0126405D01*
X0058224Y0126428D01*
X0058159Y0126455D01*
X0058095Y0126485D01*
X0058033Y0126518D01*
X0057973Y0126555D01*
X0057915Y0126595D01*
X0057860Y0126638D01*
X0057806Y0126685D01*
X0057756Y0126734D01*
X0057708Y0126786D01*
X0057663Y0126840D01*
X0057622Y0126897D01*
X0057583Y0126956D01*
X0057548Y0127017D01*
X0057516Y0127080D01*
X0057488Y0127144D01*
X0057463Y0127210D01*
X0057442Y0127277D01*
X0057425Y0127346D01*
X0057411Y0127415D01*
X0057402Y0127484D01*
X0057396Y0127555D01*
X0057394Y0127625D01*
X0062383Y0129031D02*
X0063022Y0128647D01*
X0063661Y0128264D01*
X0064045Y0130180D02*
X0063970Y0130223D01*
X0063894Y0130262D01*
X0063816Y0130299D01*
X0063737Y0130331D01*
X0063656Y0130361D01*
X0063574Y0130387D01*
X0063491Y0130409D01*
X0063407Y0130428D01*
X0063323Y0130444D01*
X0063238Y0130455D01*
X0063152Y0130463D01*
X0063067Y0130468D01*
X0062981Y0130469D01*
X0062895Y0130466D01*
X0062809Y0130460D01*
X0062724Y0130450D01*
X0062639Y0130436D01*
X0063022Y0130947D02*
X0063022Y0126347D01*
X0063405Y0126858D02*
X0063458Y0126870D01*
X0063510Y0126885D01*
X0063561Y0126905D01*
X0063610Y0126927D01*
X0063658Y0126953D01*
X0063704Y0126983D01*
X0063747Y0127015D01*
X0063788Y0127051D01*
X0063827Y0127089D01*
X0063862Y0127130D01*
X0063895Y0127174D01*
X0063924Y0127219D01*
X0063950Y0127267D01*
X0063973Y0127317D01*
X0063992Y0127367D01*
X0064007Y0127419D01*
X0064019Y0127473D01*
X0064026Y0127526D01*
X0064030Y0127580D01*
X0064031Y0127635D01*
X0064027Y0127689D01*
X0064019Y0127743D01*
X0064008Y0127796D01*
X0063993Y0127848D01*
X0063974Y0127899D01*
X0063951Y0127948D01*
X0063926Y0127996D01*
X0063896Y0128042D01*
X0063864Y0128085D01*
X0063829Y0128127D01*
X0063790Y0128165D01*
X0063749Y0128201D01*
X0063706Y0128234D01*
X0063661Y0128263D01*
X0063405Y0126858D02*
X0063320Y0126844D01*
X0063235Y0126834D01*
X0063149Y0126828D01*
X0063063Y0126825D01*
X0062977Y0126826D01*
X0062892Y0126831D01*
X0062806Y0126839D01*
X0062721Y0126850D01*
X0062637Y0126866D01*
X0062553Y0126885D01*
X0062470Y0126907D01*
X0062388Y0126933D01*
X0062307Y0126963D01*
X0062228Y0126995D01*
X0062150Y0127032D01*
X0062074Y0127071D01*
X0061999Y0127114D01*
X0062383Y0129031D02*
X0062338Y0129060D01*
X0062295Y0129093D01*
X0062254Y0129129D01*
X0062215Y0129167D01*
X0062180Y0129209D01*
X0062148Y0129252D01*
X0062118Y0129298D01*
X0062093Y0129346D01*
X0062070Y0129395D01*
X0062051Y0129446D01*
X0062036Y0129498D01*
X0062025Y0129551D01*
X0062017Y0129605D01*
X0062013Y0129659D01*
X0062014Y0129714D01*
X0062018Y0129768D01*
X0062025Y0129821D01*
X0062037Y0129875D01*
X0062052Y0129927D01*
X0062071Y0129977D01*
X0062094Y0130027D01*
X0062120Y0130075D01*
X0062149Y0130120D01*
X0062182Y0130164D01*
X0062217Y0130205D01*
X0062256Y0130243D01*
X0062297Y0130279D01*
X0062340Y0130311D01*
X0062386Y0130341D01*
X0062434Y0130367D01*
X0062483Y0130389D01*
X0062534Y0130409D01*
X0062586Y0130424D01*
X0062639Y0130436D01*
X0065944Y0129925D02*
X0067222Y0130947D01*
X0067222Y0126347D01*
X0065944Y0126347D02*
X0068500Y0126347D01*
X0068472Y0137314D02*
X0065916Y0137314D01*
X0065854Y0137316D01*
X0065793Y0137321D01*
X0065732Y0137331D01*
X0065671Y0137344D01*
X0065612Y0137360D01*
X0065554Y0137380D01*
X0065497Y0137404D01*
X0065441Y0137431D01*
X0065387Y0137461D01*
X0065335Y0137495D01*
X0065286Y0137531D01*
X0065238Y0137571D01*
X0065193Y0137613D01*
X0065151Y0137658D01*
X0065112Y0137706D01*
X0065075Y0137755D01*
X0065041Y0137807D01*
X0065011Y0137861D01*
X0064984Y0137917D01*
X0064960Y0137974D01*
X0064940Y0138032D01*
X0064924Y0138091D01*
X0064911Y0138152D01*
X0064901Y0138213D01*
X0064896Y0138274D01*
X0064894Y0138336D01*
X0064894Y0139358D01*
X0065916Y0141077D02*
X0064894Y0142355D01*
X0069494Y0142355D01*
X0069494Y0143632D02*
X0069494Y0141077D01*
X0069494Y0139358D02*
X0069494Y0138336D01*
X0069492Y0138274D01*
X0069487Y0138213D01*
X0069477Y0138152D01*
X0069464Y0138091D01*
X0069448Y0138032D01*
X0069428Y0137974D01*
X0069404Y0137917D01*
X0069377Y0137861D01*
X0069347Y0137807D01*
X0069313Y0137755D01*
X0069277Y0137706D01*
X0069237Y0137658D01*
X0069195Y0137613D01*
X0069150Y0137571D01*
X0069102Y0137531D01*
X0069053Y0137495D01*
X0069001Y0137461D01*
X0068947Y0137431D01*
X0068891Y0137404D01*
X0068834Y0137380D01*
X0068776Y0137360D01*
X0068717Y0137344D01*
X0068656Y0137331D01*
X0068595Y0137321D01*
X0068534Y0137316D01*
X0068472Y0137314D01*
X0068855Y0147749D02*
X0068751Y0147797D01*
X0068646Y0147843D01*
X0068540Y0147885D01*
X0068432Y0147924D01*
X0068323Y0147960D01*
X0068213Y0147992D01*
X0068102Y0148022D01*
X0067990Y0148047D01*
X0067878Y0148070D01*
X0067765Y0148089D01*
X0067651Y0148104D01*
X0067537Y0148116D01*
X0067423Y0148125D01*
X0067309Y0148130D01*
X0067194Y0148132D01*
X0067194Y0145577D02*
X0067079Y0145579D01*
X0066965Y0145584D01*
X0066851Y0145593D01*
X0066737Y0145605D01*
X0066623Y0145620D01*
X0066510Y0145639D01*
X0066398Y0145662D01*
X0066286Y0145687D01*
X0066175Y0145717D01*
X0066065Y0145749D01*
X0065956Y0145785D01*
X0065848Y0145824D01*
X0065742Y0145866D01*
X0065637Y0145912D01*
X0065533Y0145960D01*
X0064894Y0146855D02*
X0064896Y0146914D01*
X0064901Y0146972D01*
X0064910Y0147030D01*
X0064923Y0147087D01*
X0064939Y0147144D01*
X0064959Y0147199D01*
X0064982Y0147253D01*
X0065008Y0147305D01*
X0065038Y0147356D01*
X0065070Y0147405D01*
X0065106Y0147452D01*
X0065144Y0147496D01*
X0065185Y0147538D01*
X0065229Y0147577D01*
X0065275Y0147614D01*
X0065323Y0147647D01*
X0065373Y0147678D01*
X0065425Y0147705D01*
X0065478Y0147729D01*
X0065533Y0147750D01*
X0065916Y0147877D02*
X0068472Y0145832D01*
X0069495Y0146855D02*
X0069493Y0146914D01*
X0069488Y0146972D01*
X0069479Y0147030D01*
X0069466Y0147087D01*
X0069450Y0147144D01*
X0069430Y0147199D01*
X0069407Y0147253D01*
X0069381Y0147305D01*
X0069351Y0147356D01*
X0069319Y0147405D01*
X0069283Y0147452D01*
X0069245Y0147496D01*
X0069204Y0147538D01*
X0069160Y0147577D01*
X0069114Y0147614D01*
X0069066Y0147647D01*
X0069016Y0147678D01*
X0068964Y0147705D01*
X0068911Y0147729D01*
X0068856Y0147750D01*
X0069495Y0146855D02*
X0069493Y0146796D01*
X0069488Y0146738D01*
X0069479Y0146680D01*
X0069466Y0146623D01*
X0069450Y0146566D01*
X0069430Y0146511D01*
X0069407Y0146457D01*
X0069381Y0146405D01*
X0069351Y0146354D01*
X0069319Y0146305D01*
X0069283Y0146258D01*
X0069245Y0146214D01*
X0069204Y0146172D01*
X0069160Y0146133D01*
X0069114Y0146096D01*
X0069066Y0146063D01*
X0069016Y0146032D01*
X0068964Y0146005D01*
X0068911Y0145981D01*
X0068856Y0145960D01*
X0067194Y0148132D02*
X0067079Y0148130D01*
X0066965Y0148125D01*
X0066851Y0148116D01*
X0066737Y0148104D01*
X0066623Y0148089D01*
X0066510Y0148070D01*
X0066398Y0148047D01*
X0066286Y0148022D01*
X0066175Y0147992D01*
X0066065Y0147960D01*
X0065956Y0147924D01*
X0065848Y0147885D01*
X0065742Y0147843D01*
X0065637Y0147797D01*
X0065533Y0147749D01*
X0064894Y0146855D02*
X0064896Y0146796D01*
X0064901Y0146738D01*
X0064910Y0146680D01*
X0064923Y0146623D01*
X0064939Y0146566D01*
X0064959Y0146511D01*
X0064982Y0146457D01*
X0065008Y0146405D01*
X0065038Y0146354D01*
X0065070Y0146305D01*
X0065106Y0146258D01*
X0065144Y0146214D01*
X0065185Y0146172D01*
X0065229Y0146133D01*
X0065275Y0146096D01*
X0065323Y0146063D01*
X0065373Y0146032D01*
X0065425Y0146005D01*
X0065478Y0145981D01*
X0065533Y0145960D01*
X0067194Y0145577D02*
X0067309Y0145579D01*
X0067423Y0145584D01*
X0067537Y0145593D01*
X0067651Y0145605D01*
X0067765Y0145620D01*
X0067878Y0145639D01*
X0067990Y0145662D01*
X0068102Y0145687D01*
X0068213Y0145717D01*
X0068323Y0145749D01*
X0068432Y0145785D01*
X0068540Y0145824D01*
X0068646Y0145866D01*
X0068751Y0145912D01*
X0068855Y0145960D01*
X0045872Y0141890D02*
X0045872Y0140867D01*
X0045870Y0140805D01*
X0045865Y0140744D01*
X0045855Y0140683D01*
X0045842Y0140622D01*
X0045826Y0140563D01*
X0045806Y0140505D01*
X0045782Y0140448D01*
X0045755Y0140392D01*
X0045725Y0140338D01*
X0045691Y0140286D01*
X0045655Y0140237D01*
X0045615Y0140189D01*
X0045573Y0140144D01*
X0045528Y0140102D01*
X0045480Y0140062D01*
X0045431Y0140026D01*
X0045379Y0139992D01*
X0045325Y0139962D01*
X0045269Y0139935D01*
X0045212Y0139911D01*
X0045154Y0139891D01*
X0045095Y0139875D01*
X0045034Y0139862D01*
X0044973Y0139852D01*
X0044912Y0139847D01*
X0044850Y0139845D01*
X0042294Y0139845D01*
X0042232Y0139847D01*
X0042171Y0139852D01*
X0042110Y0139862D01*
X0042049Y0139875D01*
X0041990Y0139891D01*
X0041932Y0139911D01*
X0041875Y0139935D01*
X0041819Y0139962D01*
X0041765Y0139992D01*
X0041713Y0140026D01*
X0041664Y0140062D01*
X0041616Y0140102D01*
X0041571Y0140144D01*
X0041529Y0140189D01*
X0041490Y0140237D01*
X0041453Y0140286D01*
X0041419Y0140338D01*
X0041389Y0140392D01*
X0041362Y0140448D01*
X0041338Y0140505D01*
X0041318Y0140563D01*
X0041302Y0140622D01*
X0041289Y0140683D01*
X0041279Y0140744D01*
X0041274Y0140805D01*
X0041272Y0140867D01*
X0041272Y0141890D01*
X0042550Y0143608D02*
X0042806Y0143608D01*
X0042868Y0143610D01*
X0042929Y0143615D01*
X0042990Y0143625D01*
X0043051Y0143638D01*
X0043110Y0143654D01*
X0043168Y0143674D01*
X0043225Y0143698D01*
X0043281Y0143725D01*
X0043335Y0143755D01*
X0043387Y0143789D01*
X0043436Y0143825D01*
X0043484Y0143865D01*
X0043529Y0143907D01*
X0043571Y0143952D01*
X0043611Y0144000D01*
X0043647Y0144049D01*
X0043681Y0144101D01*
X0043711Y0144155D01*
X0043738Y0144211D01*
X0043762Y0144268D01*
X0043782Y0144326D01*
X0043798Y0144385D01*
X0043811Y0144446D01*
X0043821Y0144507D01*
X0043826Y0144568D01*
X0043828Y0144630D01*
X0043828Y0146164D01*
X0042550Y0146164D01*
X0042480Y0146162D01*
X0042409Y0146156D01*
X0042340Y0146147D01*
X0042271Y0146133D01*
X0042202Y0146116D01*
X0042135Y0146095D01*
X0042069Y0146070D01*
X0042005Y0146042D01*
X0041942Y0146010D01*
X0041881Y0145975D01*
X0041822Y0145936D01*
X0041765Y0145895D01*
X0041711Y0145850D01*
X0041659Y0145802D01*
X0041610Y0145752D01*
X0041563Y0145698D01*
X0041520Y0145643D01*
X0041480Y0145585D01*
X0041443Y0145525D01*
X0041410Y0145463D01*
X0041380Y0145399D01*
X0041353Y0145334D01*
X0041330Y0145268D01*
X0041311Y0145200D01*
X0041296Y0145131D01*
X0041284Y0145062D01*
X0041276Y0144992D01*
X0041272Y0144921D01*
X0041272Y0144851D01*
X0041276Y0144780D01*
X0041284Y0144710D01*
X0041296Y0144641D01*
X0041311Y0144572D01*
X0041330Y0144504D01*
X0041353Y0144438D01*
X0041380Y0144373D01*
X0041410Y0144309D01*
X0041443Y0144247D01*
X0041480Y0144187D01*
X0041520Y0144129D01*
X0041563Y0144074D01*
X0041610Y0144020D01*
X0041659Y0143970D01*
X0041711Y0143922D01*
X0041765Y0143877D01*
X0041822Y0143836D01*
X0041881Y0143797D01*
X0041942Y0143762D01*
X0042005Y0143730D01*
X0042069Y0143702D01*
X0042135Y0143677D01*
X0042202Y0143656D01*
X0042271Y0143639D01*
X0042340Y0143625D01*
X0042409Y0143616D01*
X0042480Y0143610D01*
X0042550Y0143608D01*
X0043828Y0146163D02*
X0043917Y0146161D01*
X0044006Y0146155D01*
X0044095Y0146146D01*
X0044183Y0146132D01*
X0044270Y0146115D01*
X0044357Y0146093D01*
X0044443Y0146068D01*
X0044527Y0146040D01*
X0044610Y0146007D01*
X0044692Y0145971D01*
X0044772Y0145932D01*
X0044850Y0145889D01*
X0044926Y0145843D01*
X0045000Y0145793D01*
X0045072Y0145741D01*
X0045142Y0145685D01*
X0045209Y0145626D01*
X0045273Y0145564D01*
X0045335Y0145500D01*
X0045394Y0145433D01*
X0045450Y0145363D01*
X0045502Y0145291D01*
X0045552Y0145217D01*
X0045598Y0145141D01*
X0045641Y0145063D01*
X0045680Y0144983D01*
X0045716Y0144901D01*
X0045749Y0144818D01*
X0045777Y0144734D01*
X0045802Y0144648D01*
X0045824Y0144561D01*
X0045841Y0144474D01*
X0045855Y0144386D01*
X0045864Y0144297D01*
X0045870Y0144208D01*
X0045872Y0144119D01*
X0044892Y0099983D02*
X0043615Y0099983D01*
X0043615Y0095383D01*
X0043615Y0097427D02*
X0044892Y0097427D01*
X0045148Y0097427D02*
X0046170Y0095383D01*
X0048086Y0095383D02*
X0049619Y0095383D01*
X0049681Y0095385D01*
X0049742Y0095390D01*
X0049803Y0095400D01*
X0049864Y0095413D01*
X0049923Y0095429D01*
X0049981Y0095449D01*
X0050038Y0095473D01*
X0050094Y0095500D01*
X0050148Y0095530D01*
X0050200Y0095564D01*
X0050249Y0095600D01*
X0050297Y0095640D01*
X0050342Y0095682D01*
X0050384Y0095727D01*
X0050424Y0095775D01*
X0050460Y0095824D01*
X0050494Y0095876D01*
X0050524Y0095930D01*
X0050551Y0095986D01*
X0050575Y0096043D01*
X0050595Y0096101D01*
X0050611Y0096160D01*
X0050624Y0096221D01*
X0050634Y0096282D01*
X0050639Y0096343D01*
X0050641Y0096405D01*
X0050641Y0096916D01*
X0050639Y0096978D01*
X0050634Y0097039D01*
X0050624Y0097100D01*
X0050611Y0097161D01*
X0050595Y0097220D01*
X0050575Y0097278D01*
X0050551Y0097335D01*
X0050524Y0097391D01*
X0050494Y0097445D01*
X0050460Y0097497D01*
X0050424Y0097546D01*
X0050384Y0097594D01*
X0050342Y0097639D01*
X0050297Y0097681D01*
X0050249Y0097721D01*
X0050200Y0097757D01*
X0050148Y0097791D01*
X0050094Y0097821D01*
X0050038Y0097848D01*
X0049981Y0097872D01*
X0049923Y0097892D01*
X0049864Y0097908D01*
X0049803Y0097921D01*
X0049742Y0097931D01*
X0049681Y0097936D01*
X0049619Y0097938D01*
X0048086Y0097938D01*
X0048086Y0099983D01*
X0050641Y0099983D01*
X0044892Y0099983D02*
X0044962Y0099981D01*
X0045033Y0099975D01*
X0045102Y0099966D01*
X0045171Y0099952D01*
X0045240Y0099935D01*
X0045307Y0099914D01*
X0045373Y0099889D01*
X0045437Y0099861D01*
X0045500Y0099829D01*
X0045561Y0099794D01*
X0045620Y0099755D01*
X0045677Y0099714D01*
X0045731Y0099669D01*
X0045783Y0099621D01*
X0045832Y0099571D01*
X0045879Y0099517D01*
X0045922Y0099462D01*
X0045962Y0099404D01*
X0045999Y0099344D01*
X0046032Y0099282D01*
X0046062Y0099218D01*
X0046089Y0099153D01*
X0046112Y0099087D01*
X0046131Y0099019D01*
X0046146Y0098950D01*
X0046158Y0098881D01*
X0046166Y0098811D01*
X0046170Y0098740D01*
X0046170Y0098670D01*
X0046166Y0098599D01*
X0046158Y0098529D01*
X0046146Y0098460D01*
X0046131Y0098391D01*
X0046112Y0098323D01*
X0046089Y0098257D01*
X0046062Y0098192D01*
X0046032Y0098128D01*
X0045999Y0098066D01*
X0045962Y0098006D01*
X0045922Y0097948D01*
X0045879Y0097893D01*
X0045832Y0097839D01*
X0045783Y0097789D01*
X0045731Y0097741D01*
X0045677Y0097696D01*
X0045620Y0097655D01*
X0045561Y0097616D01*
X0045500Y0097581D01*
X0045437Y0097549D01*
X0045373Y0097521D01*
X0045307Y0097496D01*
X0045240Y0097475D01*
X0045171Y0097458D01*
X0045102Y0097444D01*
X0045033Y0097435D01*
X0044962Y0097429D01*
X0044892Y0097427D01*
X0035913Y0098686D02*
X0034891Y0098686D01*
X0035913Y0098686D02*
X0035976Y0098688D01*
X0036039Y0098694D01*
X0036101Y0098703D01*
X0036162Y0098717D01*
X0036223Y0098734D01*
X0036282Y0098755D01*
X0036340Y0098780D01*
X0036397Y0098808D01*
X0036451Y0098839D01*
X0036503Y0098874D01*
X0036554Y0098912D01*
X0036602Y0098953D01*
X0036647Y0098997D01*
X0036689Y0099043D01*
X0036729Y0099092D01*
X0036765Y0099143D01*
X0036798Y0099197D01*
X0036828Y0099252D01*
X0036854Y0099310D01*
X0036877Y0099368D01*
X0036896Y0099428D01*
X0036911Y0099489D01*
X0036923Y0099551D01*
X0036931Y0099614D01*
X0036935Y0099677D01*
X0036935Y0099739D01*
X0036931Y0099802D01*
X0036923Y0099865D01*
X0036911Y0099927D01*
X0036896Y0099988D01*
X0036877Y0100048D01*
X0036854Y0100106D01*
X0036828Y0100164D01*
X0036798Y0100219D01*
X0036765Y0100273D01*
X0036729Y0100324D01*
X0036689Y0100373D01*
X0036647Y0100419D01*
X0036602Y0100463D01*
X0036554Y0100504D01*
X0036503Y0100542D01*
X0036451Y0100577D01*
X0036397Y0100608D01*
X0036340Y0100636D01*
X0036282Y0100661D01*
X0036223Y0100682D01*
X0036162Y0100699D01*
X0036101Y0100713D01*
X0036039Y0100722D01*
X0035976Y0100728D01*
X0035913Y0100730D01*
X0035913Y0100731D02*
X0034380Y0100731D01*
X0032285Y0099453D02*
X0032285Y0097408D01*
X0032283Y0097339D01*
X0032278Y0097270D01*
X0032268Y0097201D01*
X0032255Y0097133D01*
X0032238Y0097066D01*
X0032218Y0097000D01*
X0032194Y0096935D01*
X0032167Y0096871D01*
X0032136Y0096809D01*
X0032102Y0096749D01*
X0032065Y0096691D01*
X0032024Y0096635D01*
X0031981Y0096581D01*
X0031935Y0096529D01*
X0031886Y0096480D01*
X0031834Y0096434D01*
X0031780Y0096391D01*
X0031724Y0096350D01*
X0031666Y0096313D01*
X0031606Y0096279D01*
X0031544Y0096248D01*
X0031480Y0096221D01*
X0031415Y0096197D01*
X0031349Y0096177D01*
X0031282Y0096160D01*
X0031214Y0096147D01*
X0031145Y0096137D01*
X0031076Y0096132D01*
X0031007Y0096130D01*
X0031007Y0096131D02*
X0029730Y0096131D01*
X0029730Y0100731D01*
X0031007Y0100731D01*
X0031076Y0100729D01*
X0031145Y0100724D01*
X0031214Y0100714D01*
X0031282Y0100701D01*
X0031349Y0100684D01*
X0031415Y0100664D01*
X0031480Y0100640D01*
X0031544Y0100613D01*
X0031606Y0100582D01*
X0031666Y0100548D01*
X0031724Y0100511D01*
X0031780Y0100470D01*
X0031834Y0100427D01*
X0031886Y0100381D01*
X0031935Y0100332D01*
X0031981Y0100280D01*
X0032024Y0100226D01*
X0032065Y0100170D01*
X0032102Y0100112D01*
X0032136Y0100052D01*
X0032167Y0099990D01*
X0032194Y0099926D01*
X0032218Y0099861D01*
X0032238Y0099795D01*
X0032255Y0099728D01*
X0032268Y0099660D01*
X0032278Y0099591D01*
X0032283Y0099522D01*
X0032285Y0099453D01*
X0034380Y0096131D02*
X0035657Y0096131D01*
X0035657Y0096130D02*
X0035727Y0096132D01*
X0035798Y0096138D01*
X0035867Y0096147D01*
X0035936Y0096161D01*
X0036005Y0096178D01*
X0036072Y0096199D01*
X0036138Y0096224D01*
X0036202Y0096252D01*
X0036265Y0096284D01*
X0036326Y0096319D01*
X0036385Y0096358D01*
X0036442Y0096399D01*
X0036496Y0096444D01*
X0036548Y0096492D01*
X0036597Y0096542D01*
X0036644Y0096596D01*
X0036687Y0096651D01*
X0036727Y0096709D01*
X0036764Y0096769D01*
X0036797Y0096831D01*
X0036827Y0096895D01*
X0036854Y0096960D01*
X0036877Y0097026D01*
X0036896Y0097094D01*
X0036911Y0097163D01*
X0036923Y0097232D01*
X0036931Y0097302D01*
X0036935Y0097373D01*
X0036935Y0097443D01*
X0036931Y0097514D01*
X0036923Y0097584D01*
X0036911Y0097653D01*
X0036896Y0097722D01*
X0036877Y0097790D01*
X0036854Y0097856D01*
X0036827Y0097921D01*
X0036797Y0097985D01*
X0036764Y0098047D01*
X0036727Y0098107D01*
X0036687Y0098165D01*
X0036644Y0098220D01*
X0036597Y0098274D01*
X0036548Y0098324D01*
X0036496Y0098372D01*
X0036442Y0098417D01*
X0036385Y0098458D01*
X0036326Y0098497D01*
X0036265Y0098532D01*
X0036202Y0098564D01*
X0036138Y0098592D01*
X0036072Y0098617D01*
X0036005Y0098638D01*
X0035936Y0098655D01*
X0035867Y0098669D01*
X0035798Y0098678D01*
X0035727Y0098684D01*
X0035657Y0098686D01*
X0027883Y0100731D02*
X0025839Y0100731D01*
X0025839Y0096131D01*
X0027883Y0096131D01*
X0027372Y0098686D02*
X0025839Y0098686D01*
X0023983Y0096131D02*
X0021939Y0096131D01*
X0021939Y0100731D01*
X0056331Y0075366D02*
X0056331Y0072811D01*
X0056842Y0072811D01*
X0056331Y0075366D02*
X0060931Y0074088D01*
X0059015Y0070527D02*
X0058631Y0069888D01*
X0058248Y0069250D01*
X0060164Y0068866D02*
X0060207Y0068941D01*
X0060246Y0069017D01*
X0060283Y0069095D01*
X0060315Y0069174D01*
X0060345Y0069255D01*
X0060371Y0069337D01*
X0060393Y0069420D01*
X0060412Y0069504D01*
X0060428Y0069588D01*
X0060439Y0069673D01*
X0060447Y0069759D01*
X0060452Y0069844D01*
X0060453Y0069930D01*
X0060450Y0070016D01*
X0060444Y0070102D01*
X0060434Y0070187D01*
X0060420Y0070272D01*
X0060931Y0069888D02*
X0056331Y0069888D01*
X0056842Y0069505D02*
X0056854Y0069452D01*
X0056869Y0069400D01*
X0056889Y0069349D01*
X0056911Y0069300D01*
X0056937Y0069252D01*
X0056967Y0069206D01*
X0056999Y0069163D01*
X0057035Y0069122D01*
X0057073Y0069083D01*
X0057114Y0069048D01*
X0057158Y0069015D01*
X0057203Y0068986D01*
X0057251Y0068960D01*
X0057301Y0068937D01*
X0057351Y0068918D01*
X0057403Y0068903D01*
X0057457Y0068891D01*
X0057510Y0068883D01*
X0057564Y0068880D01*
X0057619Y0068879D01*
X0057673Y0068883D01*
X0057727Y0068891D01*
X0057780Y0068902D01*
X0057832Y0068917D01*
X0057883Y0068936D01*
X0057932Y0068959D01*
X0057980Y0068984D01*
X0058026Y0069014D01*
X0058069Y0069046D01*
X0058111Y0069081D01*
X0058149Y0069120D01*
X0058185Y0069161D01*
X0058218Y0069204D01*
X0058247Y0069249D01*
X0056842Y0069505D02*
X0056828Y0069590D01*
X0056818Y0069675D01*
X0056812Y0069761D01*
X0056809Y0069847D01*
X0056810Y0069933D01*
X0056815Y0070018D01*
X0056823Y0070104D01*
X0056834Y0070189D01*
X0056850Y0070273D01*
X0056869Y0070357D01*
X0056891Y0070440D01*
X0056917Y0070522D01*
X0056947Y0070603D01*
X0056979Y0070682D01*
X0057016Y0070760D01*
X0057055Y0070836D01*
X0057098Y0070911D01*
X0059015Y0070528D02*
X0059044Y0070573D01*
X0059077Y0070616D01*
X0059113Y0070657D01*
X0059151Y0070696D01*
X0059193Y0070731D01*
X0059236Y0070763D01*
X0059282Y0070793D01*
X0059330Y0070818D01*
X0059379Y0070841D01*
X0059430Y0070860D01*
X0059482Y0070875D01*
X0059535Y0070886D01*
X0059589Y0070894D01*
X0059643Y0070898D01*
X0059698Y0070897D01*
X0059752Y0070893D01*
X0059805Y0070886D01*
X0059859Y0070874D01*
X0059911Y0070859D01*
X0059962Y0070840D01*
X0060011Y0070817D01*
X0060059Y0070791D01*
X0060104Y0070762D01*
X0060148Y0070729D01*
X0060189Y0070694D01*
X0060227Y0070655D01*
X0060263Y0070614D01*
X0060295Y0070571D01*
X0060325Y0070525D01*
X0060351Y0070477D01*
X0060373Y0070428D01*
X0060393Y0070377D01*
X0060408Y0070325D01*
X0060420Y0070272D01*
X0059653Y0066816D02*
X0056331Y0066816D01*
X0056331Y0064261D02*
X0059653Y0064261D01*
X0059653Y0064260D02*
X0059723Y0064262D01*
X0059794Y0064268D01*
X0059863Y0064277D01*
X0059932Y0064291D01*
X0060001Y0064308D01*
X0060068Y0064329D01*
X0060134Y0064354D01*
X0060198Y0064382D01*
X0060261Y0064414D01*
X0060322Y0064449D01*
X0060381Y0064488D01*
X0060438Y0064529D01*
X0060492Y0064574D01*
X0060544Y0064622D01*
X0060593Y0064672D01*
X0060640Y0064726D01*
X0060683Y0064781D01*
X0060723Y0064839D01*
X0060760Y0064899D01*
X0060793Y0064961D01*
X0060823Y0065025D01*
X0060850Y0065090D01*
X0060873Y0065156D01*
X0060892Y0065224D01*
X0060907Y0065293D01*
X0060919Y0065362D01*
X0060927Y0065432D01*
X0060931Y0065503D01*
X0060931Y0065573D01*
X0060927Y0065644D01*
X0060919Y0065714D01*
X0060907Y0065783D01*
X0060892Y0065852D01*
X0060873Y0065920D01*
X0060850Y0065986D01*
X0060823Y0066051D01*
X0060793Y0066115D01*
X0060760Y0066177D01*
X0060723Y0066237D01*
X0060683Y0066295D01*
X0060640Y0066350D01*
X0060593Y0066404D01*
X0060544Y0066454D01*
X0060492Y0066502D01*
X0060438Y0066547D01*
X0060381Y0066588D01*
X0060322Y0066627D01*
X0060261Y0066662D01*
X0060198Y0066694D01*
X0060134Y0066722D01*
X0060068Y0066747D01*
X0060001Y0066768D01*
X0059932Y0066785D01*
X0059863Y0066799D01*
X0059794Y0066808D01*
X0059723Y0066814D01*
X0059653Y0066816D01*
X0061620Y0059018D02*
X0061620Y0056463D01*
X0061620Y0057740D02*
X0057020Y0057740D01*
X0058042Y0056463D01*
X0057020Y0053240D02*
X0061620Y0053240D01*
X0061620Y0051963D02*
X0061620Y0054518D01*
X0058042Y0051963D02*
X0057020Y0053240D01*
X0057020Y0048769D02*
X0057020Y0047492D01*
X0061620Y0047492D01*
X0061729Y0044087D02*
X0061625Y0044039D01*
X0061520Y0043993D01*
X0061414Y0043951D01*
X0061306Y0043912D01*
X0061197Y0043876D01*
X0061087Y0043844D01*
X0060976Y0043814D01*
X0060864Y0043789D01*
X0060752Y0043766D01*
X0060639Y0043747D01*
X0060525Y0043732D01*
X0060411Y0043720D01*
X0060297Y0043711D01*
X0060183Y0043706D01*
X0060068Y0043704D01*
X0060068Y0046260D02*
X0059953Y0046258D01*
X0059839Y0046253D01*
X0059725Y0046244D01*
X0059611Y0046232D01*
X0059497Y0046217D01*
X0059384Y0046198D01*
X0059272Y0046175D01*
X0059160Y0046150D01*
X0059049Y0046120D01*
X0058939Y0046088D01*
X0058830Y0046052D01*
X0058722Y0046013D01*
X0058616Y0045971D01*
X0058511Y0045925D01*
X0058407Y0045877D01*
X0058790Y0046004D02*
X0061346Y0043960D01*
X0062369Y0044982D02*
X0062367Y0045041D01*
X0062362Y0045099D01*
X0062353Y0045157D01*
X0062340Y0045214D01*
X0062324Y0045271D01*
X0062304Y0045326D01*
X0062281Y0045380D01*
X0062255Y0045432D01*
X0062225Y0045483D01*
X0062193Y0045532D01*
X0062157Y0045579D01*
X0062119Y0045623D01*
X0062078Y0045665D01*
X0062034Y0045704D01*
X0061988Y0045741D01*
X0061940Y0045774D01*
X0061890Y0045805D01*
X0061838Y0045832D01*
X0061785Y0045856D01*
X0061730Y0045877D01*
X0062369Y0044982D02*
X0062367Y0044923D01*
X0062362Y0044865D01*
X0062353Y0044807D01*
X0062340Y0044750D01*
X0062324Y0044693D01*
X0062304Y0044638D01*
X0062281Y0044584D01*
X0062255Y0044532D01*
X0062225Y0044481D01*
X0062193Y0044432D01*
X0062157Y0044385D01*
X0062119Y0044341D01*
X0062078Y0044299D01*
X0062034Y0044260D01*
X0061988Y0044223D01*
X0061940Y0044190D01*
X0061890Y0044159D01*
X0061838Y0044132D01*
X0061785Y0044108D01*
X0061730Y0044087D01*
X0061729Y0045877D02*
X0061625Y0045925D01*
X0061520Y0045971D01*
X0061414Y0046013D01*
X0061306Y0046052D01*
X0061197Y0046088D01*
X0061087Y0046120D01*
X0060976Y0046150D01*
X0060864Y0046175D01*
X0060752Y0046198D01*
X0060639Y0046217D01*
X0060525Y0046232D01*
X0060411Y0046244D01*
X0060297Y0046253D01*
X0060183Y0046258D01*
X0060068Y0046260D01*
X0060068Y0043704D02*
X0059953Y0043706D01*
X0059839Y0043711D01*
X0059725Y0043720D01*
X0059611Y0043732D01*
X0059497Y0043747D01*
X0059384Y0043766D01*
X0059272Y0043789D01*
X0059160Y0043814D01*
X0059049Y0043844D01*
X0058939Y0043876D01*
X0058830Y0043912D01*
X0058722Y0043951D01*
X0058616Y0043993D01*
X0058511Y0044039D01*
X0058407Y0044087D01*
X0057768Y0044982D02*
X0057770Y0045041D01*
X0057775Y0045099D01*
X0057784Y0045157D01*
X0057797Y0045214D01*
X0057813Y0045271D01*
X0057833Y0045326D01*
X0057856Y0045380D01*
X0057882Y0045432D01*
X0057912Y0045483D01*
X0057944Y0045532D01*
X0057980Y0045579D01*
X0058018Y0045623D01*
X0058059Y0045665D01*
X0058103Y0045704D01*
X0058149Y0045741D01*
X0058197Y0045774D01*
X0058247Y0045805D01*
X0058299Y0045832D01*
X0058352Y0045856D01*
X0058407Y0045877D01*
X0057768Y0044982D02*
X0057770Y0044923D01*
X0057775Y0044865D01*
X0057784Y0044807D01*
X0057797Y0044750D01*
X0057813Y0044693D01*
X0057833Y0044638D01*
X0057856Y0044584D01*
X0057882Y0044532D01*
X0057912Y0044481D01*
X0057944Y0044432D01*
X0057980Y0044385D01*
X0058018Y0044341D01*
X0058059Y0044299D01*
X0058103Y0044260D01*
X0058149Y0044223D01*
X0058197Y0044190D01*
X0058247Y0044159D01*
X0058299Y0044132D01*
X0058352Y0044108D01*
X0058407Y0044087D01*
X0059576Y0047492D02*
X0059576Y0048769D01*
X0059576Y0049025D02*
X0061620Y0050047D01*
X0059576Y0048769D02*
X0059574Y0048839D01*
X0059568Y0048910D01*
X0059559Y0048979D01*
X0059545Y0049048D01*
X0059528Y0049117D01*
X0059507Y0049184D01*
X0059482Y0049250D01*
X0059454Y0049314D01*
X0059422Y0049377D01*
X0059387Y0049438D01*
X0059348Y0049497D01*
X0059307Y0049554D01*
X0059262Y0049608D01*
X0059214Y0049660D01*
X0059164Y0049709D01*
X0059110Y0049756D01*
X0059055Y0049799D01*
X0058997Y0049839D01*
X0058937Y0049876D01*
X0058875Y0049909D01*
X0058811Y0049939D01*
X0058746Y0049966D01*
X0058680Y0049989D01*
X0058612Y0050008D01*
X0058543Y0050023D01*
X0058474Y0050035D01*
X0058404Y0050043D01*
X0058333Y0050047D01*
X0058263Y0050047D01*
X0058192Y0050043D01*
X0058122Y0050035D01*
X0058053Y0050023D01*
X0057984Y0050008D01*
X0057916Y0049989D01*
X0057850Y0049966D01*
X0057785Y0049939D01*
X0057721Y0049909D01*
X0057659Y0049876D01*
X0057599Y0049839D01*
X0057541Y0049799D01*
X0057486Y0049756D01*
X0057432Y0049709D01*
X0057382Y0049660D01*
X0057334Y0049608D01*
X0057289Y0049554D01*
X0057248Y0049497D01*
X0057209Y0049438D01*
X0057174Y0049377D01*
X0057142Y0049314D01*
X0057114Y0049250D01*
X0057089Y0049184D01*
X0057068Y0049117D01*
X0057051Y0049048D01*
X0057037Y0048979D01*
X0057028Y0048910D01*
X0057022Y0048839D01*
X0057020Y0048769D01*
X0062368Y0041760D02*
X0062368Y0039204D01*
X0062368Y0040482D02*
X0057768Y0040482D01*
X0058790Y0039204D01*
X0057768Y0036011D02*
X0057770Y0036081D01*
X0057776Y0036152D01*
X0057785Y0036221D01*
X0057799Y0036290D01*
X0057816Y0036359D01*
X0057837Y0036426D01*
X0057862Y0036492D01*
X0057890Y0036556D01*
X0057922Y0036619D01*
X0057957Y0036680D01*
X0057996Y0036739D01*
X0058037Y0036796D01*
X0058082Y0036850D01*
X0058130Y0036902D01*
X0058180Y0036951D01*
X0058234Y0036998D01*
X0058289Y0037041D01*
X0058347Y0037081D01*
X0058407Y0037118D01*
X0058469Y0037151D01*
X0058533Y0037181D01*
X0058598Y0037208D01*
X0058664Y0037231D01*
X0058732Y0037250D01*
X0058801Y0037265D01*
X0058870Y0037277D01*
X0058940Y0037285D01*
X0059011Y0037289D01*
X0059081Y0037289D01*
X0059152Y0037285D01*
X0059222Y0037277D01*
X0059291Y0037265D01*
X0059360Y0037250D01*
X0059428Y0037231D01*
X0059494Y0037208D01*
X0059559Y0037181D01*
X0059623Y0037151D01*
X0059685Y0037118D01*
X0059745Y0037081D01*
X0059803Y0037041D01*
X0059858Y0036998D01*
X0059912Y0036951D01*
X0059962Y0036902D01*
X0060010Y0036850D01*
X0060055Y0036796D01*
X0060096Y0036739D01*
X0060135Y0036680D01*
X0060170Y0036619D01*
X0060202Y0036556D01*
X0060230Y0036492D01*
X0060255Y0036426D01*
X0060276Y0036359D01*
X0060293Y0036290D01*
X0060307Y0036221D01*
X0060316Y0036152D01*
X0060322Y0036081D01*
X0060324Y0036011D01*
X0060324Y0034733D01*
X0060324Y0036266D02*
X0062368Y0037289D01*
X0062368Y0034733D02*
X0057768Y0034733D01*
X0057768Y0036011D01*
X0036994Y0051667D02*
X0036994Y0052178D01*
X0036992Y0052240D01*
X0036987Y0052301D01*
X0036977Y0052362D01*
X0036964Y0052423D01*
X0036948Y0052482D01*
X0036928Y0052540D01*
X0036904Y0052597D01*
X0036877Y0052653D01*
X0036847Y0052707D01*
X0036813Y0052759D01*
X0036777Y0052808D01*
X0036737Y0052856D01*
X0036695Y0052901D01*
X0036650Y0052943D01*
X0036602Y0052983D01*
X0036553Y0053019D01*
X0036501Y0053053D01*
X0036447Y0053083D01*
X0036391Y0053110D01*
X0036334Y0053134D01*
X0036276Y0053154D01*
X0036217Y0053170D01*
X0036156Y0053183D01*
X0036095Y0053193D01*
X0036034Y0053198D01*
X0035972Y0053200D01*
X0032394Y0053200D01*
X0033416Y0055277D02*
X0032394Y0056554D01*
X0036994Y0056554D01*
X0036994Y0055277D02*
X0036994Y0057832D01*
D13*
X0068356Y0076797D02*
X0068356Y0111443D01*
X0069930Y0113017D01*
X0104576Y0113017D01*
X0106151Y0111443D01*
X0106151Y0076797D01*
X0104576Y0075222D01*
X0069930Y0075222D01*
X0068356Y0076797D01*
X0061357Y0139673D02*
X0061357Y0143054D01*
X0056814Y0144554D02*
X0054701Y0144554D01*
X0050157Y0143054D02*
X0050157Y0139673D01*
D14*
X0070392Y0109868D02*
X0070394Y0109935D01*
X0070400Y0110001D01*
X0070410Y0110067D01*
X0070424Y0110132D01*
X0070441Y0110196D01*
X0070463Y0110259D01*
X0070488Y0110321D01*
X0070517Y0110381D01*
X0070550Y0110439D01*
X0070585Y0110495D01*
X0070625Y0110549D01*
X0070667Y0110600D01*
X0070712Y0110649D01*
X0070760Y0110695D01*
X0070811Y0110738D01*
X0070864Y0110778D01*
X0070920Y0110815D01*
X0070978Y0110848D01*
X0071037Y0110878D01*
X0071098Y0110904D01*
X0071161Y0110927D01*
X0071225Y0110945D01*
X0071290Y0110960D01*
X0071356Y0110971D01*
X0071422Y0110978D01*
X0071488Y0110981D01*
X0071555Y0110980D01*
X0071621Y0110975D01*
X0071687Y0110966D01*
X0071753Y0110953D01*
X0071817Y0110936D01*
X0071880Y0110916D01*
X0071942Y0110891D01*
X0072003Y0110863D01*
X0072062Y0110832D01*
X0072118Y0110797D01*
X0072173Y0110759D01*
X0072225Y0110717D01*
X0072274Y0110672D01*
X0072321Y0110625D01*
X0072365Y0110575D01*
X0072405Y0110522D01*
X0072443Y0110467D01*
X0072477Y0110410D01*
X0072508Y0110351D01*
X0072535Y0110290D01*
X0072558Y0110228D01*
X0072578Y0110164D01*
X0072594Y0110099D01*
X0072606Y0110034D01*
X0072614Y0109968D01*
X0072618Y0109901D01*
X0072618Y0109835D01*
X0072614Y0109768D01*
X0072606Y0109702D01*
X0072594Y0109637D01*
X0072578Y0109572D01*
X0072558Y0109508D01*
X0072535Y0109446D01*
X0072508Y0109385D01*
X0072477Y0109326D01*
X0072443Y0109269D01*
X0072405Y0109214D01*
X0072365Y0109161D01*
X0072321Y0109111D01*
X0072274Y0109064D01*
X0072225Y0109019D01*
X0072173Y0108977D01*
X0072118Y0108939D01*
X0072061Y0108904D01*
X0072003Y0108873D01*
X0071942Y0108845D01*
X0071880Y0108820D01*
X0071817Y0108800D01*
X0071753Y0108783D01*
X0071687Y0108770D01*
X0071621Y0108761D01*
X0071555Y0108756D01*
X0071488Y0108755D01*
X0071422Y0108758D01*
X0071356Y0108765D01*
X0071290Y0108776D01*
X0071225Y0108791D01*
X0071161Y0108809D01*
X0071098Y0108832D01*
X0071037Y0108858D01*
X0070978Y0108888D01*
X0070920Y0108921D01*
X0070864Y0108958D01*
X0070811Y0108998D01*
X0070760Y0109041D01*
X0070712Y0109087D01*
X0070667Y0109136D01*
X0070625Y0109187D01*
X0070585Y0109241D01*
X0070550Y0109297D01*
X0070517Y0109355D01*
X0070488Y0109415D01*
X0070463Y0109477D01*
X0070441Y0109540D01*
X0070424Y0109604D01*
X0070410Y0109669D01*
X0070400Y0109735D01*
X0070394Y0109801D01*
X0070392Y0109868D01*
D15*
X0106905Y0154173D02*
X0106905Y0154673D01*
X0106903Y0154733D01*
X0106898Y0154794D01*
X0106889Y0154853D01*
X0106876Y0154912D01*
X0106860Y0154971D01*
X0106840Y0155028D01*
X0106817Y0155083D01*
X0106790Y0155138D01*
X0106761Y0155190D01*
X0106728Y0155241D01*
X0106692Y0155290D01*
X0106654Y0155336D01*
X0106612Y0155380D01*
X0106568Y0155422D01*
X0106522Y0155460D01*
X0106473Y0155496D01*
X0106422Y0155529D01*
X0106370Y0155558D01*
X0106315Y0155585D01*
X0106260Y0155608D01*
X0106203Y0155628D01*
X0106144Y0155644D01*
X0106085Y0155657D01*
X0106026Y0155666D01*
X0105965Y0155671D01*
X0105905Y0155673D01*
X0102405Y0155673D01*
X0102405Y0158027D02*
X0102405Y0159277D01*
X0102405Y0158027D02*
X0106905Y0158027D01*
X0104905Y0158027D02*
X0104905Y0159277D01*
X0104903Y0159346D01*
X0104897Y0159415D01*
X0104888Y0159483D01*
X0104875Y0159550D01*
X0104858Y0159617D01*
X0104837Y0159683D01*
X0104813Y0159747D01*
X0104785Y0159810D01*
X0104754Y0159872D01*
X0104720Y0159932D01*
X0104682Y0159989D01*
X0104641Y0160045D01*
X0104598Y0160098D01*
X0104551Y0160149D01*
X0104502Y0160197D01*
X0104450Y0160242D01*
X0104395Y0160284D01*
X0104339Y0160323D01*
X0104280Y0160360D01*
X0104219Y0160392D01*
X0104157Y0160422D01*
X0104093Y0160448D01*
X0104028Y0160470D01*
X0103962Y0160489D01*
X0103895Y0160504D01*
X0103827Y0160515D01*
X0103758Y0160523D01*
X0103689Y0160527D01*
X0103621Y0160527D01*
X0103552Y0160523D01*
X0103483Y0160515D01*
X0103415Y0160504D01*
X0103348Y0160489D01*
X0103282Y0160470D01*
X0103217Y0160448D01*
X0103153Y0160422D01*
X0103091Y0160392D01*
X0103030Y0160360D01*
X0102971Y0160323D01*
X0102915Y0160284D01*
X0102860Y0160242D01*
X0102808Y0160197D01*
X0102759Y0160149D01*
X0102712Y0160098D01*
X0102669Y0160045D01*
X0102628Y0159989D01*
X0102590Y0159932D01*
X0102556Y0159872D01*
X0102525Y0159810D01*
X0102497Y0159747D01*
X0102473Y0159683D01*
X0102452Y0159617D01*
X0102435Y0159550D01*
X0102422Y0159483D01*
X0102413Y0159415D01*
X0102407Y0159346D01*
X0102405Y0159277D01*
X0103405Y0162302D02*
X0102405Y0163552D01*
X0106905Y0163552D01*
X0106905Y0162302D02*
X0106905Y0164802D01*
X0130653Y0108807D02*
X0131903Y0108807D01*
X0130653Y0108807D02*
X0130653Y0104307D01*
X0130653Y0106307D02*
X0131903Y0106307D01*
X0131972Y0106309D01*
X0132041Y0106315D01*
X0132109Y0106324D01*
X0132176Y0106337D01*
X0132243Y0106354D01*
X0132309Y0106375D01*
X0132373Y0106399D01*
X0132436Y0106427D01*
X0132498Y0106458D01*
X0132558Y0106492D01*
X0132615Y0106530D01*
X0132671Y0106571D01*
X0132724Y0106614D01*
X0132775Y0106661D01*
X0132823Y0106710D01*
X0132868Y0106762D01*
X0132910Y0106817D01*
X0132949Y0106873D01*
X0132986Y0106932D01*
X0133018Y0106993D01*
X0133048Y0107055D01*
X0133074Y0107119D01*
X0133096Y0107184D01*
X0133115Y0107250D01*
X0133130Y0107317D01*
X0133141Y0107385D01*
X0133149Y0107454D01*
X0133153Y0107523D01*
X0133153Y0107591D01*
X0133149Y0107660D01*
X0133141Y0107729D01*
X0133130Y0107797D01*
X0133115Y0107864D01*
X0133096Y0107930D01*
X0133074Y0107995D01*
X0133048Y0108059D01*
X0133018Y0108121D01*
X0132986Y0108182D01*
X0132949Y0108241D01*
X0132910Y0108297D01*
X0132868Y0108352D01*
X0132823Y0108404D01*
X0132775Y0108453D01*
X0132724Y0108500D01*
X0132671Y0108543D01*
X0132615Y0108584D01*
X0132558Y0108622D01*
X0132498Y0108656D01*
X0132436Y0108687D01*
X0132373Y0108715D01*
X0132309Y0108739D01*
X0132243Y0108760D01*
X0132176Y0108777D01*
X0132109Y0108790D01*
X0132041Y0108799D01*
X0131972Y0108805D01*
X0131903Y0108807D01*
X0136178Y0108807D02*
X0137678Y0104307D01*
X0137303Y0105432D02*
X0135053Y0105432D01*
X0134678Y0104307D02*
X0136178Y0108807D01*
X0139578Y0108807D02*
X0140828Y0108807D01*
X0139578Y0108807D02*
X0139578Y0104307D01*
X0140828Y0104307D01*
X0140896Y0104309D01*
X0140963Y0104314D01*
X0141030Y0104323D01*
X0141097Y0104336D01*
X0141162Y0104353D01*
X0141227Y0104372D01*
X0141291Y0104396D01*
X0141353Y0104423D01*
X0141414Y0104453D01*
X0141472Y0104486D01*
X0141529Y0104522D01*
X0141584Y0104562D01*
X0141637Y0104604D01*
X0141688Y0104650D01*
X0141735Y0104697D01*
X0141781Y0104748D01*
X0141823Y0104801D01*
X0141863Y0104856D01*
X0141899Y0104913D01*
X0141932Y0104971D01*
X0141962Y0105032D01*
X0141989Y0105094D01*
X0142013Y0105158D01*
X0142032Y0105223D01*
X0142049Y0105288D01*
X0142062Y0105355D01*
X0142071Y0105422D01*
X0142076Y0105489D01*
X0142078Y0105557D01*
X0142078Y0107557D01*
X0142076Y0107625D01*
X0142071Y0107692D01*
X0142062Y0107759D01*
X0142049Y0107826D01*
X0142032Y0107891D01*
X0142013Y0107956D01*
X0141989Y0108020D01*
X0141962Y0108082D01*
X0141932Y0108143D01*
X0141899Y0108201D01*
X0141863Y0108258D01*
X0141823Y0108313D01*
X0141781Y0108366D01*
X0141735Y0108417D01*
X0141688Y0108464D01*
X0141637Y0108510D01*
X0141584Y0108552D01*
X0141529Y0108592D01*
X0141472Y0108628D01*
X0141414Y0108661D01*
X0141353Y0108691D01*
X0141291Y0108718D01*
X0141227Y0108742D01*
X0141162Y0108761D01*
X0141097Y0108778D01*
X0141030Y0108791D01*
X0140963Y0108800D01*
X0140896Y0108805D01*
X0140828Y0108807D01*
X0144228Y0108807D02*
X0145728Y0108807D01*
X0145790Y0108805D01*
X0145851Y0108799D01*
X0145912Y0108790D01*
X0145972Y0108777D01*
X0146031Y0108760D01*
X0146089Y0108739D01*
X0146146Y0108715D01*
X0146201Y0108688D01*
X0146254Y0108657D01*
X0146306Y0108623D01*
X0146355Y0108586D01*
X0146402Y0108546D01*
X0146446Y0108503D01*
X0146487Y0108458D01*
X0146526Y0108410D01*
X0146562Y0108359D01*
X0146594Y0108307D01*
X0146623Y0108253D01*
X0146649Y0108197D01*
X0146671Y0108139D01*
X0146690Y0108081D01*
X0146705Y0108021D01*
X0146716Y0107960D01*
X0146724Y0107899D01*
X0146728Y0107838D01*
X0146728Y0107776D01*
X0146724Y0107715D01*
X0146716Y0107654D01*
X0146705Y0107593D01*
X0146690Y0107533D01*
X0146671Y0107475D01*
X0146649Y0107417D01*
X0146623Y0107361D01*
X0146594Y0107307D01*
X0146562Y0107255D01*
X0146526Y0107204D01*
X0146487Y0107156D01*
X0146446Y0107111D01*
X0146402Y0107068D01*
X0146355Y0107028D01*
X0146306Y0106991D01*
X0146254Y0106957D01*
X0146201Y0106926D01*
X0146146Y0106899D01*
X0146089Y0106875D01*
X0146031Y0106854D01*
X0145972Y0106837D01*
X0145912Y0106824D01*
X0145851Y0106815D01*
X0145790Y0106809D01*
X0145728Y0106807D01*
X0144728Y0106807D01*
X0145478Y0106807D02*
X0145547Y0106805D01*
X0145616Y0106799D01*
X0145684Y0106790D01*
X0145751Y0106777D01*
X0145818Y0106760D01*
X0145884Y0106739D01*
X0145948Y0106715D01*
X0146011Y0106687D01*
X0146073Y0106656D01*
X0146133Y0106622D01*
X0146190Y0106584D01*
X0146246Y0106543D01*
X0146299Y0106500D01*
X0146350Y0106453D01*
X0146398Y0106404D01*
X0146443Y0106352D01*
X0146485Y0106297D01*
X0146524Y0106241D01*
X0146561Y0106182D01*
X0146593Y0106121D01*
X0146623Y0106059D01*
X0146649Y0105995D01*
X0146671Y0105930D01*
X0146690Y0105864D01*
X0146705Y0105797D01*
X0146716Y0105729D01*
X0146724Y0105660D01*
X0146728Y0105591D01*
X0146728Y0105523D01*
X0146724Y0105454D01*
X0146716Y0105385D01*
X0146705Y0105317D01*
X0146690Y0105250D01*
X0146671Y0105184D01*
X0146649Y0105119D01*
X0146623Y0105055D01*
X0146593Y0104993D01*
X0146561Y0104932D01*
X0146524Y0104873D01*
X0146485Y0104817D01*
X0146443Y0104762D01*
X0146398Y0104710D01*
X0146350Y0104661D01*
X0146299Y0104614D01*
X0146246Y0104571D01*
X0146190Y0104530D01*
X0146133Y0104492D01*
X0146073Y0104458D01*
X0146011Y0104427D01*
X0145948Y0104399D01*
X0145884Y0104375D01*
X0145818Y0104354D01*
X0145751Y0104337D01*
X0145684Y0104324D01*
X0145616Y0104315D01*
X0145547Y0104309D01*
X0145478Y0104307D01*
X0144228Y0104307D01*
X0145478Y0096996D02*
X0144228Y0095996D01*
X0145478Y0096996D02*
X0145478Y0092496D01*
X0144228Y0092496D02*
X0146728Y0092496D01*
X0142078Y0093746D02*
X0142078Y0095746D01*
X0142076Y0095814D01*
X0142071Y0095881D01*
X0142062Y0095948D01*
X0142049Y0096015D01*
X0142032Y0096080D01*
X0142013Y0096145D01*
X0141989Y0096209D01*
X0141962Y0096271D01*
X0141932Y0096332D01*
X0141899Y0096390D01*
X0141863Y0096447D01*
X0141823Y0096502D01*
X0141781Y0096555D01*
X0141735Y0096606D01*
X0141688Y0096653D01*
X0141637Y0096699D01*
X0141584Y0096741D01*
X0141529Y0096781D01*
X0141472Y0096817D01*
X0141414Y0096850D01*
X0141353Y0096880D01*
X0141291Y0096907D01*
X0141227Y0096931D01*
X0141162Y0096950D01*
X0141097Y0096967D01*
X0141030Y0096980D01*
X0140963Y0096989D01*
X0140896Y0096994D01*
X0140828Y0096996D01*
X0139578Y0096996D01*
X0139578Y0092496D01*
X0140828Y0092496D01*
X0140896Y0092498D01*
X0140963Y0092503D01*
X0141030Y0092512D01*
X0141097Y0092525D01*
X0141162Y0092542D01*
X0141227Y0092561D01*
X0141291Y0092585D01*
X0141353Y0092612D01*
X0141414Y0092642D01*
X0141472Y0092675D01*
X0141529Y0092711D01*
X0141584Y0092751D01*
X0141637Y0092793D01*
X0141688Y0092839D01*
X0141735Y0092886D01*
X0141781Y0092937D01*
X0141823Y0092990D01*
X0141863Y0093045D01*
X0141899Y0093102D01*
X0141932Y0093160D01*
X0141962Y0093221D01*
X0141989Y0093283D01*
X0142013Y0093347D01*
X0142032Y0093412D01*
X0142049Y0093477D01*
X0142062Y0093544D01*
X0142071Y0093611D01*
X0142076Y0093678D01*
X0142078Y0093746D01*
X0137678Y0092496D02*
X0136178Y0096996D01*
X0134678Y0092496D01*
X0135053Y0093621D02*
X0137303Y0093621D01*
X0131903Y0094496D02*
X0130653Y0094496D01*
X0131903Y0094496D02*
X0131972Y0094498D01*
X0132041Y0094504D01*
X0132109Y0094513D01*
X0132176Y0094526D01*
X0132243Y0094543D01*
X0132309Y0094564D01*
X0132373Y0094588D01*
X0132436Y0094616D01*
X0132498Y0094647D01*
X0132558Y0094681D01*
X0132615Y0094719D01*
X0132671Y0094760D01*
X0132724Y0094803D01*
X0132775Y0094850D01*
X0132823Y0094899D01*
X0132868Y0094951D01*
X0132910Y0095006D01*
X0132949Y0095062D01*
X0132986Y0095121D01*
X0133018Y0095182D01*
X0133048Y0095244D01*
X0133074Y0095308D01*
X0133096Y0095373D01*
X0133115Y0095439D01*
X0133130Y0095506D01*
X0133141Y0095574D01*
X0133149Y0095643D01*
X0133153Y0095712D01*
X0133153Y0095780D01*
X0133149Y0095849D01*
X0133141Y0095918D01*
X0133130Y0095986D01*
X0133115Y0096053D01*
X0133096Y0096119D01*
X0133074Y0096184D01*
X0133048Y0096248D01*
X0133018Y0096310D01*
X0132986Y0096371D01*
X0132949Y0096430D01*
X0132910Y0096486D01*
X0132868Y0096541D01*
X0132823Y0096593D01*
X0132775Y0096642D01*
X0132724Y0096689D01*
X0132671Y0096732D01*
X0132615Y0096773D01*
X0132558Y0096811D01*
X0132498Y0096845D01*
X0132436Y0096876D01*
X0132373Y0096904D01*
X0132309Y0096928D01*
X0132243Y0096949D01*
X0132176Y0096966D01*
X0132109Y0096979D01*
X0132041Y0096988D01*
X0131972Y0096994D01*
X0131903Y0096996D01*
X0130653Y0096996D01*
X0130653Y0092496D01*
X0130653Y0085185D02*
X0131903Y0085185D01*
X0130653Y0085185D02*
X0130653Y0080685D01*
X0130653Y0082685D02*
X0131903Y0082685D01*
X0131972Y0082687D01*
X0132041Y0082693D01*
X0132109Y0082702D01*
X0132176Y0082715D01*
X0132243Y0082732D01*
X0132309Y0082753D01*
X0132373Y0082777D01*
X0132436Y0082805D01*
X0132498Y0082836D01*
X0132558Y0082870D01*
X0132615Y0082908D01*
X0132671Y0082949D01*
X0132724Y0082992D01*
X0132775Y0083039D01*
X0132823Y0083088D01*
X0132868Y0083140D01*
X0132910Y0083195D01*
X0132949Y0083251D01*
X0132986Y0083310D01*
X0133018Y0083371D01*
X0133048Y0083433D01*
X0133074Y0083497D01*
X0133096Y0083562D01*
X0133115Y0083628D01*
X0133130Y0083695D01*
X0133141Y0083763D01*
X0133149Y0083832D01*
X0133153Y0083901D01*
X0133153Y0083969D01*
X0133149Y0084038D01*
X0133141Y0084107D01*
X0133130Y0084175D01*
X0133115Y0084242D01*
X0133096Y0084308D01*
X0133074Y0084373D01*
X0133048Y0084437D01*
X0133018Y0084499D01*
X0132986Y0084560D01*
X0132949Y0084619D01*
X0132910Y0084675D01*
X0132868Y0084730D01*
X0132823Y0084782D01*
X0132775Y0084831D01*
X0132724Y0084878D01*
X0132671Y0084921D01*
X0132615Y0084962D01*
X0132558Y0085000D01*
X0132498Y0085034D01*
X0132436Y0085065D01*
X0132373Y0085093D01*
X0132309Y0085117D01*
X0132243Y0085138D01*
X0132176Y0085155D01*
X0132109Y0085168D01*
X0132041Y0085177D01*
X0131972Y0085183D01*
X0131903Y0085185D01*
X0136178Y0085185D02*
X0137678Y0080685D01*
X0137303Y0081810D02*
X0135053Y0081810D01*
X0134678Y0080685D02*
X0136178Y0085185D01*
X0139578Y0085185D02*
X0140828Y0085185D01*
X0139578Y0085185D02*
X0139578Y0080685D01*
X0140828Y0080685D01*
X0140896Y0080687D01*
X0140963Y0080692D01*
X0141030Y0080701D01*
X0141097Y0080714D01*
X0141162Y0080731D01*
X0141227Y0080750D01*
X0141291Y0080774D01*
X0141353Y0080801D01*
X0141414Y0080831D01*
X0141472Y0080864D01*
X0141529Y0080900D01*
X0141584Y0080940D01*
X0141637Y0080982D01*
X0141688Y0081028D01*
X0141735Y0081075D01*
X0141781Y0081126D01*
X0141823Y0081179D01*
X0141863Y0081234D01*
X0141899Y0081291D01*
X0141932Y0081349D01*
X0141962Y0081410D01*
X0141989Y0081472D01*
X0142013Y0081536D01*
X0142032Y0081601D01*
X0142049Y0081666D01*
X0142062Y0081733D01*
X0142071Y0081800D01*
X0142076Y0081867D01*
X0142078Y0081935D01*
X0142078Y0083935D01*
X0142076Y0084003D01*
X0142071Y0084070D01*
X0142062Y0084137D01*
X0142049Y0084204D01*
X0142032Y0084269D01*
X0142013Y0084334D01*
X0141989Y0084398D01*
X0141962Y0084460D01*
X0141932Y0084521D01*
X0141899Y0084579D01*
X0141863Y0084636D01*
X0141823Y0084691D01*
X0141781Y0084744D01*
X0141735Y0084795D01*
X0141688Y0084842D01*
X0141637Y0084888D01*
X0141584Y0084930D01*
X0141529Y0084970D01*
X0141472Y0085006D01*
X0141414Y0085039D01*
X0141353Y0085069D01*
X0141291Y0085096D01*
X0141227Y0085120D01*
X0141162Y0085139D01*
X0141097Y0085156D01*
X0141030Y0085169D01*
X0140963Y0085178D01*
X0140896Y0085183D01*
X0140828Y0085185D01*
X0146353Y0083185D02*
X0146399Y0083231D01*
X0146443Y0083280D01*
X0146483Y0083331D01*
X0146521Y0083384D01*
X0146556Y0083439D01*
X0146588Y0083496D01*
X0146617Y0083554D01*
X0146643Y0083614D01*
X0146665Y0083676D01*
X0146684Y0083738D01*
X0146700Y0083801D01*
X0146712Y0083865D01*
X0146721Y0083930D01*
X0146726Y0083995D01*
X0146728Y0084060D01*
X0146353Y0083185D02*
X0144228Y0080685D01*
X0146728Y0080685D01*
X0144228Y0084184D02*
X0144252Y0084253D01*
X0144280Y0084320D01*
X0144311Y0084386D01*
X0144345Y0084450D01*
X0144382Y0084512D01*
X0144423Y0084573D01*
X0144466Y0084631D01*
X0144512Y0084687D01*
X0144562Y0084741D01*
X0144613Y0084792D01*
X0144667Y0084840D01*
X0144724Y0084886D01*
X0144783Y0084929D01*
X0144844Y0084968D01*
X0144906Y0085005D01*
X0144971Y0085038D01*
X0145037Y0085069D01*
X0145105Y0085095D01*
X0145173Y0085119D01*
X0145243Y0085139D01*
X0145314Y0085155D01*
X0145386Y0085168D01*
X0145458Y0085177D01*
X0145530Y0085182D01*
X0145603Y0085184D01*
X0145603Y0085185D02*
X0145668Y0085183D01*
X0145734Y0085177D01*
X0145798Y0085168D01*
X0145862Y0085155D01*
X0145926Y0085138D01*
X0145988Y0085117D01*
X0146049Y0085093D01*
X0146108Y0085065D01*
X0146166Y0085034D01*
X0146221Y0085000D01*
X0146275Y0084962D01*
X0146326Y0084922D01*
X0146375Y0084878D01*
X0146421Y0084832D01*
X0146465Y0084783D01*
X0146505Y0084732D01*
X0146543Y0084678D01*
X0146577Y0084623D01*
X0146608Y0084565D01*
X0146636Y0084506D01*
X0146660Y0084445D01*
X0146681Y0084383D01*
X0146698Y0084319D01*
X0146711Y0084255D01*
X0146720Y0084191D01*
X0146726Y0084125D01*
X0146728Y0084060D01*
X0124177Y0049268D02*
X0122677Y0049268D01*
X0124177Y0049268D02*
X0124239Y0049266D01*
X0124300Y0049260D01*
X0124361Y0049251D01*
X0124421Y0049238D01*
X0124480Y0049221D01*
X0124538Y0049200D01*
X0124595Y0049176D01*
X0124650Y0049149D01*
X0124703Y0049118D01*
X0124755Y0049084D01*
X0124804Y0049047D01*
X0124851Y0049007D01*
X0124895Y0048964D01*
X0124936Y0048919D01*
X0124975Y0048871D01*
X0125011Y0048820D01*
X0125043Y0048768D01*
X0125072Y0048714D01*
X0125098Y0048658D01*
X0125120Y0048600D01*
X0125139Y0048542D01*
X0125154Y0048482D01*
X0125165Y0048421D01*
X0125173Y0048360D01*
X0125177Y0048299D01*
X0125177Y0048237D01*
X0125173Y0048176D01*
X0125165Y0048115D01*
X0125154Y0048054D01*
X0125139Y0047994D01*
X0125120Y0047936D01*
X0125098Y0047878D01*
X0125072Y0047822D01*
X0125043Y0047768D01*
X0125011Y0047716D01*
X0124975Y0047665D01*
X0124936Y0047617D01*
X0124895Y0047572D01*
X0124851Y0047529D01*
X0124804Y0047489D01*
X0124755Y0047452D01*
X0124703Y0047418D01*
X0124650Y0047387D01*
X0124595Y0047360D01*
X0124538Y0047336D01*
X0124480Y0047315D01*
X0124421Y0047298D01*
X0124361Y0047285D01*
X0124300Y0047276D01*
X0124239Y0047270D01*
X0124177Y0047268D01*
X0123177Y0047268D01*
X0123927Y0047268D02*
X0123996Y0047266D01*
X0124065Y0047260D01*
X0124133Y0047251D01*
X0124200Y0047238D01*
X0124267Y0047221D01*
X0124333Y0047200D01*
X0124397Y0047176D01*
X0124460Y0047148D01*
X0124522Y0047117D01*
X0124582Y0047083D01*
X0124639Y0047045D01*
X0124695Y0047004D01*
X0124748Y0046961D01*
X0124799Y0046914D01*
X0124847Y0046865D01*
X0124892Y0046813D01*
X0124934Y0046758D01*
X0124973Y0046702D01*
X0125010Y0046643D01*
X0125042Y0046582D01*
X0125072Y0046520D01*
X0125098Y0046456D01*
X0125120Y0046391D01*
X0125139Y0046325D01*
X0125154Y0046258D01*
X0125165Y0046190D01*
X0125173Y0046121D01*
X0125177Y0046052D01*
X0125177Y0045984D01*
X0125173Y0045915D01*
X0125165Y0045846D01*
X0125154Y0045778D01*
X0125139Y0045711D01*
X0125120Y0045645D01*
X0125098Y0045580D01*
X0125072Y0045516D01*
X0125042Y0045454D01*
X0125010Y0045393D01*
X0124973Y0045334D01*
X0124934Y0045278D01*
X0124892Y0045223D01*
X0124847Y0045171D01*
X0124799Y0045122D01*
X0124748Y0045075D01*
X0124695Y0045032D01*
X0124639Y0044991D01*
X0124582Y0044953D01*
X0124522Y0044919D01*
X0124460Y0044888D01*
X0124397Y0044860D01*
X0124333Y0044836D01*
X0124267Y0044815D01*
X0124200Y0044798D01*
X0124133Y0044785D01*
X0124065Y0044776D01*
X0123996Y0044770D01*
X0123927Y0044768D01*
X0122677Y0044768D01*
X0119652Y0046768D02*
X0118402Y0046768D01*
X0119652Y0046768D02*
X0119721Y0046770D01*
X0119790Y0046776D01*
X0119858Y0046785D01*
X0119925Y0046798D01*
X0119992Y0046815D01*
X0120058Y0046836D01*
X0120122Y0046860D01*
X0120185Y0046888D01*
X0120247Y0046919D01*
X0120307Y0046953D01*
X0120364Y0046991D01*
X0120420Y0047032D01*
X0120473Y0047075D01*
X0120524Y0047122D01*
X0120572Y0047171D01*
X0120617Y0047223D01*
X0120659Y0047278D01*
X0120698Y0047334D01*
X0120735Y0047393D01*
X0120767Y0047454D01*
X0120797Y0047516D01*
X0120823Y0047580D01*
X0120845Y0047645D01*
X0120864Y0047711D01*
X0120879Y0047778D01*
X0120890Y0047846D01*
X0120898Y0047915D01*
X0120902Y0047984D01*
X0120902Y0048052D01*
X0120898Y0048121D01*
X0120890Y0048190D01*
X0120879Y0048258D01*
X0120864Y0048325D01*
X0120845Y0048391D01*
X0120823Y0048456D01*
X0120797Y0048520D01*
X0120767Y0048582D01*
X0120735Y0048643D01*
X0120698Y0048702D01*
X0120659Y0048758D01*
X0120617Y0048813D01*
X0120572Y0048865D01*
X0120524Y0048914D01*
X0120473Y0048961D01*
X0120420Y0049004D01*
X0120364Y0049045D01*
X0120307Y0049083D01*
X0120247Y0049117D01*
X0120185Y0049148D01*
X0120122Y0049176D01*
X0120058Y0049200D01*
X0119992Y0049221D01*
X0119925Y0049238D01*
X0119858Y0049251D01*
X0119790Y0049260D01*
X0119721Y0049266D01*
X0119652Y0049268D01*
X0118402Y0049268D01*
X0118402Y0044768D01*
X0116048Y0045768D02*
X0116048Y0049268D01*
X0116048Y0045768D02*
X0116046Y0045708D01*
X0116041Y0045647D01*
X0116032Y0045588D01*
X0116019Y0045529D01*
X0116003Y0045470D01*
X0115983Y0045413D01*
X0115960Y0045358D01*
X0115933Y0045303D01*
X0115904Y0045251D01*
X0115871Y0045200D01*
X0115835Y0045151D01*
X0115797Y0045105D01*
X0115755Y0045061D01*
X0115711Y0045019D01*
X0115665Y0044981D01*
X0115616Y0044945D01*
X0115565Y0044912D01*
X0115513Y0044883D01*
X0115458Y0044856D01*
X0115403Y0044833D01*
X0115346Y0044813D01*
X0115287Y0044797D01*
X0115228Y0044784D01*
X0115169Y0044775D01*
X0115108Y0044770D01*
X0115048Y0044768D01*
X0114548Y0044768D01*
D16*
X0097253Y0152269D02*
X0097253Y0174769D01*
X0087253Y0174769D02*
X0087253Y0152269D01*
X0077253Y0152269D02*
X0077253Y0174769D01*
D17*
X0077253Y0150769D03*
X0087253Y0150769D03*
X0097253Y0150769D03*
D18*
X0097253Y0137769D03*
X0087253Y0137769D03*
X0077253Y0137769D03*
D19*
X0055877Y0149914D02*
X0055043Y0149914D01*
X0055752Y0150747D01*
X0055502Y0151414D02*
X0055462Y0151412D01*
X0055422Y0151407D01*
X0055382Y0151399D01*
X0055343Y0151387D01*
X0055306Y0151372D01*
X0055270Y0151354D01*
X0055235Y0151333D01*
X0055202Y0151310D01*
X0055172Y0151283D01*
X0055144Y0151254D01*
X0055118Y0151223D01*
X0055095Y0151190D01*
X0055075Y0151155D01*
X0055057Y0151118D01*
X0055043Y0151080D01*
X0055752Y0150747D02*
X0055777Y0150773D01*
X0055800Y0150802D01*
X0055820Y0150832D01*
X0055837Y0150864D01*
X0055851Y0150897D01*
X0055862Y0150932D01*
X0055870Y0150967D01*
X0055875Y0151003D01*
X0055877Y0151039D01*
X0055875Y0151076D01*
X0055870Y0151112D01*
X0055861Y0151148D01*
X0055848Y0151183D01*
X0055833Y0151216D01*
X0055814Y0151247D01*
X0055792Y0151277D01*
X0055767Y0151304D01*
X0055740Y0151329D01*
X0055710Y0151351D01*
X0055679Y0151370D01*
X0055646Y0151385D01*
X0055611Y0151398D01*
X0055575Y0151407D01*
X0055539Y0151412D01*
X0055502Y0151414D01*
X0054116Y0151414D02*
X0054116Y0149914D01*
X0054241Y0150080D02*
X0054270Y0150087D01*
X0054298Y0150098D01*
X0054325Y0150112D01*
X0054350Y0150129D01*
X0054372Y0150149D01*
X0054392Y0150172D01*
X0054409Y0150196D01*
X0054423Y0150223D01*
X0054434Y0150251D01*
X0054441Y0150280D01*
X0054445Y0150310D01*
X0054445Y0150340D01*
X0054441Y0150370D01*
X0054434Y0150400D01*
X0054423Y0150428D01*
X0054409Y0150454D01*
X0054392Y0150479D01*
X0054372Y0150502D01*
X0054349Y0150521D01*
X0054324Y0150539D01*
X0054116Y0150664D01*
X0053908Y0150789D01*
X0053782Y0150164D02*
X0053824Y0150141D01*
X0053867Y0150121D01*
X0053912Y0150104D01*
X0053957Y0150091D01*
X0054004Y0150081D01*
X0054051Y0150074D01*
X0054098Y0150070D01*
X0054146Y0150070D01*
X0054194Y0150074D01*
X0054241Y0150081D01*
X0054450Y0151164D02*
X0054408Y0151187D01*
X0054365Y0151207D01*
X0054320Y0151224D01*
X0054275Y0151237D01*
X0054228Y0151247D01*
X0054181Y0151254D01*
X0054134Y0151258D01*
X0054086Y0151258D01*
X0054038Y0151254D01*
X0053991Y0151247D01*
X0053962Y0151240D01*
X0053934Y0151229D01*
X0053907Y0151215D01*
X0053882Y0151198D01*
X0053860Y0151178D01*
X0053840Y0151155D01*
X0053823Y0151131D01*
X0053809Y0151104D01*
X0053798Y0151076D01*
X0053791Y0151047D01*
X0053787Y0151017D01*
X0053787Y0150987D01*
X0053791Y0150957D01*
X0053798Y0150927D01*
X0053809Y0150899D01*
X0053823Y0150873D01*
X0053840Y0150848D01*
X0053860Y0150825D01*
X0053883Y0150806D01*
X0053908Y0150788D01*
X0053141Y0150330D02*
X0053141Y0151414D01*
X0052307Y0151414D02*
X0052307Y0150330D01*
X0052309Y0150290D01*
X0052315Y0150251D01*
X0052324Y0150213D01*
X0052337Y0150175D01*
X0052353Y0150139D01*
X0052373Y0150105D01*
X0052396Y0150072D01*
X0052422Y0150042D01*
X0052451Y0150015D01*
X0052482Y0149990D01*
X0052516Y0149969D01*
X0052551Y0149951D01*
X0052588Y0149936D01*
X0052626Y0149925D01*
X0052665Y0149917D01*
X0052704Y0149913D01*
X0052744Y0149913D01*
X0052783Y0149917D01*
X0052822Y0149925D01*
X0052860Y0149936D01*
X0052897Y0149951D01*
X0052933Y0149969D01*
X0052966Y0149990D01*
X0052997Y0150015D01*
X0053026Y0150042D01*
X0053052Y0150072D01*
X0053075Y0150105D01*
X0053095Y0150139D01*
X0053111Y0150175D01*
X0053124Y0150213D01*
X0053133Y0150251D01*
X0053139Y0150290D01*
X0053141Y0150330D01*
D20*
X0020324Y0037151D02*
X0019340Y0037151D01*
X0019340Y0072348D01*
X0020324Y0072348D01*
X0052214Y0067348D02*
X0052214Y0067348D01*
X0052216Y0067375D01*
X0052221Y0067401D01*
X0052230Y0067426D01*
X0052243Y0067450D01*
X0052258Y0067472D01*
X0052277Y0067492D01*
X0052297Y0067509D01*
X0052320Y0067523D01*
X0052345Y0067534D01*
X0052371Y0067541D01*
X0052398Y0067545D01*
X0052424Y0067545D01*
X0052451Y0067541D01*
X0052477Y0067534D01*
X0052502Y0067523D01*
X0052525Y0067509D01*
X0052545Y0067492D01*
X0052564Y0067472D01*
X0052579Y0067450D01*
X0052592Y0067426D01*
X0052601Y0067401D01*
X0052606Y0067375D01*
X0052608Y0067348D01*
X0052608Y0067348D01*
X0052608Y0067348D01*
X0052606Y0067321D01*
X0052601Y0067295D01*
X0052592Y0067270D01*
X0052579Y0067246D01*
X0052564Y0067224D01*
X0052545Y0067204D01*
X0052525Y0067187D01*
X0052502Y0067173D01*
X0052477Y0067162D01*
X0052451Y0067155D01*
X0052424Y0067151D01*
X0052398Y0067151D01*
X0052371Y0067155D01*
X0052345Y0067162D01*
X0052320Y0067173D01*
X0052297Y0067187D01*
X0052277Y0067204D01*
X0052258Y0067224D01*
X0052243Y0067246D01*
X0052230Y0067270D01*
X0052221Y0067295D01*
X0052216Y0067321D01*
X0052214Y0067348D01*
X0052216Y0067375D01*
X0052221Y0067401D01*
X0052230Y0067426D01*
X0052243Y0067450D01*
X0052258Y0067472D01*
X0052277Y0067492D01*
X0052297Y0067509D01*
X0052320Y0067523D01*
X0052345Y0067534D01*
X0052371Y0067541D01*
X0052398Y0067545D01*
X0052424Y0067545D01*
X0052451Y0067541D01*
X0052477Y0067534D01*
X0052502Y0067523D01*
X0052525Y0067509D01*
X0052545Y0067492D01*
X0052564Y0067472D01*
X0052579Y0067450D01*
X0052592Y0067426D01*
X0052601Y0067401D01*
X0052606Y0067375D01*
X0052608Y0067348D01*
M02*
